<?xml version="1.0" encoding="UTF-8"?>
<svg xmlns="http://www.w3.org/2000/svg" xmlns:xlink="http://www.w3.org/1999/xlink" viewBox="0 0 76.81 260">
  <defs>
    <style>
      .cls-1 {
        opacity: .7;
      }

      .cls-1, .cls-2, .cls-3, .cls-4, .cls-5, .cls-6, .cls-7 {
        mix-blend-mode: multiply;
      }

      .cls-1, .cls-4, .cls-7 {
        fill: #c98a74;
      }

      .cls-2 {
        fill: #d39c84;
        opacity: .71;
      }

      .cls-8 {
        fill: #fff;
      }

      .cls-3 {
        opacity: .75;
      }

      .cls-3, .cls-9 {
        fill: #333;
      }

      .cls-10 {
        fill: url(#V_KƒOƒ_ƒf_ƒVƒ_ƒ_ƒXƒEƒHƒbƒ_24);
      }

      .cls-11 {
        isolation: isolate;
      }

      .cls-12 {
        fill: #fbbc9e;
      }

      .cls-4 {
        opacity: .45;
      }

      .cls-13 {
        fill: #388692;
      }

      .cls-14 {
        fill: #756458;
      }

      .cls-5 {
        fill: #b3b3b3;
      }

      .cls-15 {
        fill: #b4a39f;
      }

      .cls-16 {
        fill: #59381f;
      }

      .cls-17 {
        fill: #32312e;
      }

      .cls-18 {
        fill: #796b66;
      }

      .cls-19 {
        fill: none;
      }

      .cls-6 {
        fill: #a6a6a6;
      }

      .cls-7 {
        opacity: .55;
      }

      .cls-20 {
        fill: #666;
      }

      .cls-21 {
        fill: #f2f2f2;
      }

      .cls-22 {
        fill: url(#linear-gradient);
        opacity: .91;
      }
    </style>
    <linearGradient id="V_KƒOƒ_ƒf_ƒVƒ_ƒ_ƒXƒEƒHƒbƒ_24" data-name="V‹KƒOƒ‰ƒf[ƒVƒ‡ƒ“ƒXƒEƒHƒbƒ` 24" x1="3514.84" y1="364.19" x2="3538.43" y2="364.19" gradientTransform="translate(-3531.39 286.59) rotate(-10.23) scale(1.01 .99) skewX(-.65)" gradientUnits="userSpaceOnUse">
      <stop offset="0" stop-color="#796b66"/>
      <stop offset=".13" stop-color="#8a7c77"/>
      <stop offset=".38" stop-color="#a89894"/>
      <stop offset=".52" stop-color="#b4a39f"/>
      <stop offset=".64" stop-color="#ab9a96"/>
      <stop offset=".82" stop-color="#948480"/>
      <stop offset="1" stop-color="#796b66"/>
    </linearGradient>
    <linearGradient id="linear-gradient" x1="-227.73" y1="9.83" x2="-219.92" y2="9.83" gradientTransform="translate(-202.77) rotate(-180) scale(1 -1)" gradientUnits="userSpaceOnUse">
      <stop offset="0" stop-color="#796b66"/>
      <stop offset=".13" stop-color="#8a7c77"/>
      <stop offset=".38" stop-color="#a89894"/>
      <stop offset=".53" stop-color="#b4a39f"/>
      <stop offset=".64" stop-color="#ab9a96"/>
      <stop offset=".83" stop-color="#948480"/>
      <stop offset="1" stop-color="#796b66"/>
    </linearGradient>
  </defs>
  <g class="cls-11">
    <g id="Layer_2" data-name="Layer 2">
      <g id="Business_Man" data-name="Business Man">
        <g>
          <g>
            <path class="cls-17" d="m4.75,254.79c-.14-1.58.49-3.85,2.25-4.78,2.56-1.35,9.9-4.98,12.13-6.04,1.98-.94,3.74-2.58,4.65-3.77,4.56.56,9.47.78,12.78.46.79,2.45.48,7.57-.1,9.5-.38,1.28-.62,2.02-1.93,2.29-1.17.25-3.93.64-6.32.7l-2.44-.84c-2.4,1.12-3.5,1.26-6.39,2.14-2.86.87-7.75,1.43-12.82,1.24-.68-.04-1.78-.22-1.82-.9Z"/>
            <path class="cls-17" d="m48.08,254.83c-.76-.86-1.48-1.63-2.92-1.49-1.23-1.11-2.36-2.11-2.57-2.82-.59-2-.91-7.31-.09-9.86,3.43.32,7.17.09,11.91-.48.41,1.77,1.12,2.94,3.48,5.31,2.02,2.02,7.2,5.65,7.98,9.39.54,2.61-1.1,4.49-4.6,4.96-6.61.9-10.7-2.22-13.18-5.01Z"/>
            <g>
              <g>
                <g>
                  <path class="cls-12" d="m9.52,156.79c-.13,1.99-.09,7.06.28,9.26.37,2.21.63,7.05-.18,8.77.6,1.06.54,1.73-.21,2.66-.54.66-1.45,1.39-2.81,1.63-1.17.2-3.51.28-4.17-.86-.96-1.66-1.84-4.34-2.13-5.59-.23-.98-.54-3.01-.05-5,.49-1.99,1.4-5.52,1.71-6.77.31-1.27.45-2.53.56-4.14l7,.03Z"/>
                  <path class="cls-7" d="m6.36,168.9c.28.72.58,2.56.77,3.49.14.67.52,1.85,1.04,2.52-.41.66-1.76,1.12-2.46.61-.7-.51-1.12-2.43-1.14-3.32-.03-1.05.13-1.94.4-2.74.27-.81.82-2.03,1.39-.55Z"/>
                </g>
                <path class="cls-12" d="m66.59,156.29c-.05,1.99-.52,7.04-1.08,9.2-.56,2.17-1.24,6.97-.58,8.76-.69,1.01-.69,1.68-.02,2.67.48.71,1.32,1.51,2.66,1.86,1.14.3,3.47.58,4.23-.49,1.1-1.57,2.2-4.16,2.6-5.38.31-.96.79-2.96.48-4.98-.32-2.02-.92-5.62-1.12-6.89-.2-1.29-.24-2.56-.2-4.18l-6.97-.57Z"/>
                <path class="cls-7" d="m68.7,168.62c-.34.7-.8,2.5-1.07,3.41-.2.66-.67,1.8-1.26,2.42.35.7,1.66,1.27,2.4.82.74-.45,1.32-2.32,1.42-3.21.12-1.04.04-1.94-.16-2.77-.2-.83-.65-2.09-1.33-.67Z"/>
                <g>
                  <path class="cls-9" d="m63.76,180.1h10.42c1.45,0,2.63,1.18,2.63,2.63v41.82c0,1.45-1.18,2.63-2.63,2.63h-10.42c-1.45,0-2.63-1.18-2.63-2.63v-41.82c0-1.45,1.18-2.63,2.63-2.63Z"/>
                  <path class="cls-9" d="m67.21,172.15c0-.98.8-1.78,1.78-1.78s1.78.8,1.78,1.78v7.98h-3.65l.1-7.98Z"/>
                  <path class="cls-3" d="m62.7,182.74v41.83c0,.59.48,1.06,1.07,1.07h10.42c.59,0,1.07-.48,1.07-1.07v-41.82c0-.59-.48-1.07-1.07-1.07h-4.84v-1.09h-.87v1.09h-4.71c-.59,0-1.07.48-1.07,1.07Zm11.49,42.31h-4.84v-42.81h4.84c.27,0,.49.22.49.5v41.82c0,.27-.22.49-.49.49Zm-10.91-42.31c0-.27.22-.5.49-.5h4.71v42.81h-4.71c-.27,0-.49-.22-.5-.49v-41.82Z"/>
                </g>
              </g>
              <path class="cls-9" d="m21.29,169.95c.73,17.25,1.54,53.33.94,70.42,5.01.64,12.53.9,15.94.51.05-14.1.62-54.36.54-70.91l-17.43-.03Z"/>
              <path class="cls-9" d="m58.11,169.95c-.75,17.25-1.63,53.33-1.05,70.42-5.01.64-12.54.9-15.95.51-.03-14.1-.54-54.36-.43-70.91l17.43-.03Z"/>
              <path class="cls-12" d="m45.21,77.42c0,1.74,0,5.41.87,7.01l-6.36,2.76-6.23-3.21c.77-1.67,1.09-5.27,1.09-6.55h10.63Z"/>
              <path class="cls-21" d="m49.48,86.94c0,14.39-3.72,35.69-9.76,45.84-6.55-12.49-9.44-35.5-9.51-45.39,1.25-1.13,2.37-2.15,3.28-3.41l6.23,3.21,6.36-2.76c1,.74,2.5,1.73,3.4,2.51Z"/>
              <path class="cls-13" d="m37.99,96.46c-1.01,3.31-2.9,14.78-3.11,23.21,1.31,4.88,2.92,9.46,4.84,13.13,1.85-3.11,3.48-7.27,4.86-11.96-.04-8.49-2.07-20.91-3.12-24.37.77-.64,2.19-2.7,3.15-4.24l-4.88-5.02-4.88,5.02c.96,1.54,2.38,3.6,3.15,4.24Z"/>
              <path class="cls-5" d="m39.72,87.2l-4.88,5.02c-.62.58-1.41,1.34-1.86,1.76-.65-1.31-2.21-4.76-2.77-6.58.8,1.71,2.13,4.24,2.83,5.3,1.33-1.02,5.75-4.77,6.67-5.49Z"/>
              <path class="cls-5" d="m39.72,87.2l4.88,5.02c.58.59,1.27,1.24,1.85,1.73.84-1.31,2.51-5.3,3.04-7.01-.75,1.6-2.36,4.62-3.09,5.84-1.32-1.09-5.65-4.78-6.67-5.58Z"/>
              <path class="cls-20" d="m9.63,100.46c1.15-3.74,2.65-5.99,5.48-7.24,2.07-.92,5.24-2.17,7.59-3.16,2.88-1.21,5.82-2.25,7.51-2.67.06,9.89,2.96,32.9,9.51,45.39,6.04-10.15,9.76-31.45,9.76-45.84,2.31.77,10.43,4.69,14.13,6.45,3.16,1.5,4.6,3.11,5.75,6.19,1.83,4.9,2.75,11.32,3.5,18.09,1.12,10.16,1.87,32.21,1.51,40.34h-9.51c-1.28-11.68-1.71-22.52-2.08-27.94-.33-4.83-.78-9.62-1.23-13.61-.89,6.34-1.23,12.46-1.5,15.64-.77,9.25-.7,25.23,2.64,40.72-15.08,3-35.41,2.84-45.83.09,1.42-10.17,2.67-17.42,2.84-27.28.16-8.97-.4-16.45-2.54-29.14-.57,3.54-1.04,7.69-1.57,11.03-.91,5.81-2.08,18.77-4.36,30.5H1.62c.34-8.33,3.25-30.96,4.69-41.09.79-5.5,1.88-11.79,3.32-16.46Z"/>
              <path class="cls-6" d="m41.63,142.68c0,1.07-.87,1.93-1.93,1.93s-1.93-.87-1.93-1.93.87-1.93,1.93-1.93,1.93.87,1.93,1.93Z"/>
              <path class="cls-6" d="m40.12,135.84c9.79-9.62,15.96-27.25,17.38-33.54l.12-.51-2.72-.76c.82-.08,1.63-.25,2.17-.38l.73-.18-.08-.57c-.31-2-2.6-7.95-4.89-11.63-.19-.08-.38-.16-.56-.24,1.26,3.41,3.36,8.75,3.91,10.94-1.31.37-3.18.79-3.18.79l-2.37.53,5.54,1.85c-1.62,6.6-7.75,24.18-16.24,33.49-.13.13.02.38.21.21Z"/>
              <path class="cls-6" d="m39.17,136.47c-8.49-9.54-14.62-27.73-16.24-34.34l5.54-1.85-2.37-.53s-1.88-.42-3.19-.79c.52-2.08,2.45-7.02,3.72-10.44-.23.08-.45.16-.69.25-2.18,3.7-4.29,9.21-4.58,11.12l-.08.57.73.18c.54.13,1.35.3,2.17.38l-2.72.76.12.51c1.42,6.29,7.59,24.54,17.38,34.38.18.17.34-.08.21-.22Z"/>
              <rect class="cls-20" x="65.13" y="158" width="8.9" height="1.55"/>
              <rect class="cls-20" x="1.83" y="158" width="9.08" height="1.55"/>
            </g>
          </g>
          <g>
            <g>
              <path class="cls-12" d="m17.08,57.75c.47,4.22,1.63,10.14,3.34,15.46,1.2,3.72,5.04,6.25,7.58,5.34,2.75,3.17,7.34,3.94,12.21,3.94s9.46-.77,12.21-3.94c2.54.91,6.38-1.62,7.58-5.34,1.72-5.32,2.87-11.24,3.34-15.46.96,1.86,4.55,1.8,5.77-1.28.93-2.36,2.24-6.93,3.2-10.81,1.03-4.12,1.31-7.66-.77-8.25-2.05-.58-3.72,1.16-6.67,4.65.38-2.76.48-4.76.9-13.83.62-13.47-11.28-23.94-25.57-23.94S14.03,14.77,14.65,28.24c.41,9.06.51,11.07.9,13.83-2.95-3.49-4.62-5.23-6.67-4.65-2.08.59-1.79,4.12-.77,8.25.96,3.88,2.27,8.45,3.21,10.81,1.22,3.08,4.81,3.14,5.77,1.28Z"/>
              <path class="cls-18" d="m19.03,18.79c.14,2.07.69,6.47.89,8.65.13,1.43-.89,2.62-1.95,3.31,0,1.92-.14,11.18-.19,13.73-1.06-1.09-2.41-2.59-3.85-4.28-.64-4.24-1.56-14.93-1.66-19.81-.13-5.98,2.39-10.25,5.19-13.3,2.5-2.73,6.09-3.43,9.17-2.56,1.54-3.31,7.18-4.53,13.65-4.53s14.94,2.27,21.6,7.03c4.2,3,6.82,9.35,6.86,14.06.06,6.62-.96,14.29-1.92,18.82-1.35,1.76-3,3.49-4.62,4.25.39-2.09.39-11.14.19-13.4-.91-.7-2.42-1.41-2.15-2.62.4-1.79.9-6.43,1.4-9.05.33-1.78-1.32-4.49-4.02-5.6-3.18-1.31-9.48-2.68-17.15-2.91-5.77-.17-13.43.91-17.15,2.73-1.77.87-4.63,2.18-4.28,5.47Z"/>
              <path class="cls-18" d="m35.41,34.82c-.12-.65-.39-1.29-1.98-1.45-2.19-.23-5.68-.19-6.72-.11-1.04.08-2.51.47-3.3,1.37-.79.9-1.63,2.33-.44,2.13,1.23-.21,3.65-.58,6.22-.84,1.9-.2,4.69-.3,5.3-.3.61,0,.99-.4.92-.8Z"/>
              <path class="cls-18" d="m44.85,34.94c.12-.67.39-1.32,1.94-1.53,2.14-.29,5.56-.34,6.57-.29,1.02.05,2.46.41,3.23,1.31.77.9,1.59,2.34.42,2.16-1.2-.18-3.57-.49-6.08-.7-1.86-.15-4.59-.19-5.19-.17-.6.02-.96-.38-.89-.79Z"/>
              <path class="cls-7" d="m40.14,59.29c.75,0,1.95-.01,2.52-.11.7-.12,1.34-.6.49-1.7-.85-1.1-2.42-1.7-3.01-1.7s-2.16.6-3.01,1.7c-.85,1.1-.21,1.58.49,1.7.57.1,1.76.11,2.52.11Z"/>
              <path class="cls-10" d="m34.84,3.04c4.63-1.71,12.48-.3,18.5,2.16,4.65,1.9,4.92,2.82,4.26,3.79-.45.8-2.78.27-8.25-1.05-5.42-1.31-12.74-1-14.1-1.2-2.15-.32-3.38-2.6-.41-3.7Z"/>
              <path class="cls-22" d="m19.72,12.98c1.38-.91,3.63-2.15,4.78-2.67.97-.44,1.41-3.17-.12-3.76-2.39-.91-5.16.81-7.48,4.15-.96,1.38.96,3.51,2.82,2.28Z"/>
              <g>
                <path class="cls-19" d="m46.98,40.5c.99-.14,2.27-.24,3.58-.24,1.66,0,3.37.17,4.59.62,2.12.77,3.15,2.75,3.27,5.88,0,.15,0,.3,0,.45,0,2.93-1,4.8-2.59,5.28-.74.23-2.19.36-3.71.36-2.01,0-4.22-.23-5.13-.59-1.7-.67-2.49-1.77-3.02-3.49-.28-.95-.55-2.64-.55-4.16,0-.48.03-.94.08-1.36.17-1.39,1.64-2.5,3.44-2.75Z"/>
                <path class="cls-19" d="m25.03,40.88c1.22-.45,2.94-.62,4.59-.62,1.32,0,2.59.1,3.58.24,1.8.25,3.27,1.36,3.45,2.75.06.41.08.88.08,1.36,0,1.52-.26,3.21-.55,4.16-.53,1.72-1.32,2.83-3.02,3.49-.91.36-3.11.59-5.13.59-1.51,0-2.96-.13-3.71-.36-1.58-.48-2.58-2.34-2.58-5.28,0-.15,0-.3,0-.45.12-3.12,1.16-5.11,3.27-5.88Z"/>
                <path class="cls-16" d="m15.28,41.78c.31.34.95.97,1.14,1.26l4.71,1.38c-.17.71-.26,1.48-.29,2.3,0,.16,0,.33,0,.48,0,3.1,1.07,5.46,3.22,6.15.94.29,2.41.4,3.98.4,2.1,0,4.29-.21,5.45-.65,1.97-.75,3.02-2.21,3.56-4.08.32-1.07.59-2.8.59-4.42,0-.04,0-.08,0-.13h4.91s0,.08,0,.13c0,1.62.27,3.35.59,4.42.54,1.87,1.59,3.33,3.56,4.08,1.16.44,3.36.64,5.45.65,1.57,0,3.04-.12,3.98-.4,2.16-.69,3.23-3.05,3.23-6.15,0-.16,0-.32-.01-.48-.03-.83-.12-1.61-.29-2.32l4.85-1.36c.27-.2,1.32-1.19,1.61-1.56l-6.72,2.05c-.59-1.67-1.67-2.91-3.32-3.51-1.4-.51-3.18-.67-4.91-.67-1.36,0-2.68.11-3.71.25-2.06.29-3.94,1.57-4.22,3.54-.02.14-.03.29-.04.44h-5c-.01-.15-.02-.3-.04-.44-.28-1.97-2.16-3.24-4.22-3.53-1.04-.14-2.35-.25-3.71-.25-1.72,0-3.51.17-4.9.67-1.65.6-2.73,1.85-3.33,3.53l-6.12-1.77Zm28.18,2.83c0-.48.03-.94.08-1.36.17-1.39,1.64-2.5,3.44-2.75.99-.14,2.27-.24,3.58-.24,1.66,0,3.37.17,4.59.62,2.12.77,3.15,2.75,3.27,5.88,0,.15,0,.3,0,.45,0,2.93-1,4.8-2.59,5.28-.74.23-2.19.36-3.71.36-2.01,0-4.22-.23-5.13-.59-1.7-.67-2.49-1.77-3.02-3.49-.28-.95-.55-2.64-.55-4.16Zm-21.71,2.6c0-.15,0-.3,0-.45.12-3.12,1.16-5.11,3.27-5.88,1.22-.45,2.94-.62,4.59-.62,1.32,0,2.59.1,3.58.24,1.8.25,3.27,1.36,3.45,2.75.06.41.08.88.08,1.36,0,1.52-.26,3.21-.55,4.16-.53,1.72-1.32,2.83-3.02,3.49-.91.36-3.11.59-5.13.59-1.51,0-2.96-.13-3.71-.36-1.58-.48-2.58-2.34-2.58-5.28Z"/>
              </g>
              <path class="cls-2" d="m28.25,21.57c3.66-.3,7.7-.46,11.95-.46h0c4.21,0,8.22.16,11.85.46h0c.19.01.36-.13.37-.32h0c.01-.19-.12-.36-.32-.37h0c-3.65-.29-7.68-.46-11.91-.46h0c-4.27,0-8.33.17-12.01.47h0c-.19.01-.33.18-.32.37h0c.01.18.17.32.34.32h0s.02,0,.03,0h0Z"/>
              <path class="cls-2" d="m28.25,26.84c3.66-.3,7.7-.46,11.95-.46h0c4.21,0,8.22.16,11.85.45h0c.19.01.36-.13.37-.32h0c.02-.19-.13-.36-.32-.37h0c-3.65-.29-7.68-.46-11.91-.46h0c-4.27,0-8.33.17-12.01.47h0c-.19.02-.33.18-.32.37h0c.02.18.17.32.34.32h0s.02,0,.03,0h0Z"/>
              <path class="cls-7" d="m26.98,69.98c-.18-4.71,2.9-8.62,6.6-9.79-3.78-.04-8.08,3.14-6.6,9.79Z"/>
              <path class="cls-7" d="m53.08,69.98c.18-4.71-2.9-8.62-6.6-9.79,3.78-.04,8.08,3.14,6.6,9.79Z"/>
              <path class="cls-15" d="m67.72,23.68c.07-.15.01-.33-.14-.41h0c-1.22-.59-2.92-1.06-4.37-1.2h0c-.17-.02-.31.11-.33.27h0c-.01.16.11.31.27.33h0c1.37.13,3.03.59,4.16,1.15h0s.09.03.13.03h0c.11,0,.22-.06.27-.17h0Z"/>
              <path class="cls-15" d="m67.39,26.77c.07-.15.01-.33-.14-.4h0c-1.22-.59-2.92-1.07-4.37-1.2h0c-.17-.01-.31.11-.33.27h0c-.02.17.11.31.27.33h0c1.37.13,3.03.6,4.16,1.15h0s.09.03.13.03h0c.11,0,.22-.06.27-.17h0Z"/>
              <path class="cls-15" d="m66.92,29.86c.07-.15.01-.33-.14-.4h0c-1.22-.59-2.91-1.07-4.37-1.21h0c-.17-.01-.31.11-.33.27h0c-.02.17.11.31.27.33h0c1.37.13,3.03.59,4.16,1.15h0s.09.03.13.03h0c.11,0,.22-.06.27-.17h0Z"/>
              <path class="cls-15" d="m13.29,23.82c1.13-.55,2.8-1.02,4.16-1.15h0c.17-.01.29-.16.27-.33h0c-.01-.17-.16-.29-.33-.27h0c-1.46.14-3.15.61-4.37,1.21h0c-.15.07-.21.25-.14.4h0c.05.11.16.17.27.17h0s.09,0,.13-.03h0Z"/>
              <path class="cls-15" d="m13.63,26.91c1.13-.55,2.8-1.02,4.16-1.14h0c.17-.02.29-.16.27-.33h0c-.01-.17-.16-.29-.33-.27h0c-1.45.14-3.15.62-4.37,1.2h0c-.15.07-.21.25-.14.4h0c.05.11.16.17.27.17h0s.09,0,.13-.03h0Z"/>
              <path class="cls-15" d="m14.1,30c1.13-.55,2.79-1.02,4.16-1.15h0c.17-.02.29-.16.27-.33h0c-.02-.17-.16-.29-.33-.27h0c-1.46.14-3.15.62-4.37,1.21h0c-.15.07-.21.25-.14.4h0c.05.11.16.17.27.17h0s.09,0,.13-.03h0Z"/>
            </g>
            <g>
              <g>
                <path class="cls-4" d="m70.64,42.73c-.6-1.39-2.14-1.63-3.44.34-1.3,1.96-2,4.14-2.08,4.69-.07.55.54,1.28.28,2.19-.25.9-.95,1-1.08,2.14-.1.83.03,2.24.33,2.67.1.14.35.04.37-.37.05-.98-.1-2.56.65-3.22.8-.71.95-2.34.94-3.2,0-.77.35-1.43.95-2.37.52-.81,1.69-1.26,2.33-.92,1.05.54,1.21-.86.75-1.94Z"/>
                <path class="cls-4" d="m9.23,42.73c.6-1.39,2.14-1.63,3.44.34,1.3,1.96,2,4.14,2.08,4.69.07.55-.54,1.28-.28,2.19.25.9.95,1,1.08,2.14.1.83-.03,2.24-.33,2.67-.1.14-.35.04-.37-.37-.05-.98.1-2.56-.65-3.22-.8-.71-.95-2.34-.94-3.2,0-.77-.35-1.43-.95-2.37-.52-.81-1.69-1.26-2.33-.92-1.05.54-1.21-.86-.75-1.94Z"/>
              </g>
              <path class="cls-1" d="m49.78,66.37h0c.27-.26.27-.7,0-.96h0c-.27-.27-.7-.27-.97,0h0c-1.51,1.54-5.06,3.01-8.59,3h0c-3.53.02-7.09-1.46-8.6-2.99h0c-.27-.27-.7-.27-.97,0h0c-.27.26-.27.7,0,.96h0c1.91,1.89,5.66,3.38,9.56,3.4h0c3.9-.01,7.65-1.51,9.56-3.4h0Z"/>
            </g>
            <g>
              <g>
                <path class="cls-8" d="m33.93,45.88c0,2.82-1.95,5.1-4.36,5.1s-4.36-2.28-4.36-5.1,1.95-5.1,4.36-5.1,4.36,2.28,4.36,5.1Z"/>
                <path class="cls-16" d="m29.58,41.66c-1.98,0-3.65,1.24-4.22,2.95.48-2.2,2.18-3.83,4.22-3.83s3.73,1.63,4.22,3.83c-.56-1.71-2.24-2.95-4.22-2.95Z"/>
                <g>
                  <path class="cls-14" d="m33.01,45.89c0,2.19-1.47,3.96-3.29,3.96s-3.29-1.77-3.29-3.96,1.47-3.96,3.29-3.96,3.29,1.77,3.29,3.96Z"/>
                  <path d="m32.17,45.89c0,1.63-1.1,2.95-2.45,2.95s-2.45-1.32-2.45-2.95,1.1-2.95,2.45-2.95,2.45,1.32,2.45,2.95Z"/>
                </g>
              </g>
              <path class="cls-8" d="m31.39,44.43c0,.43-.35.79-.79.79s-.79-.35-.79-.79.35-.79.79-.79.79.35.79.79Z"/>
            </g>
            <g>
              <g>
                <path class="cls-8" d="m46.55,45.88c0,2.82,1.95,5.1,4.36,5.1s4.36-2.28,4.36-5.1-1.95-5.1-4.36-5.1-4.36,2.28-4.36,5.1Z"/>
                <path class="cls-16" d="m50.9,41.66c1.98,0,3.65,1.24,4.22,2.95-.48-2.2-2.18-3.83-4.22-3.83s-3.74,1.63-4.21,3.83c.56-1.71,2.24-2.95,4.21-2.95Z"/>
                <g>
                  <path class="cls-14" d="m47.47,45.89c0,2.19,1.47,3.96,3.29,3.96s3.29-1.77,3.29-3.96-1.47-3.96-3.29-3.96-3.29,1.77-3.29,3.96Z"/>
                  <path d="m48.31,45.89c0,1.63,1.1,2.95,2.45,2.95s2.45-1.32,2.45-2.95-1.1-2.95-2.45-2.95-2.45,1.32-2.45,2.95Z"/>
                </g>
              </g>
              <path class="cls-8" d="m50.87,44.43c0,.43.35.79.79.79s.79-.35.79-.79-.35-.79-.79-.79-.79.35-.79.79Z"/>
            </g>
          </g>
        </g>
      </g>
    </g>
  </g>
</svg>