<?xml version="1.0" encoding="UTF-8"?>
<svg id="Layer_2" data-name="Layer 2" xmlns="http://www.w3.org/2000/svg" xmlns:xlink="http://www.w3.org/1999/xlink" viewBox="0 0 764.71 1837.9">
  <defs>
    <style>
      .cls-1 {
        fill: url(#Degradado_sin_nombre_54-2);
      }

      .cls-2 {
        fill: url(#Degradado_sin_nombre_54-3);
      }

      .cls-3 {
        fill: #fcc255;
      }

      .cls-4 {
        fill: #4f1619;
      }

      .cls-5 {
        fill: #2c0f11;
      }

      .cls-6 {
        fill: #4a1919;
      }

      .cls-7 {
        fill: url(#Degradado_sin_nombre_54);
      }

      .cls-8 {
        fill: #f3dabe;
      }

      .cls-9 {
        fill: #cf8b24;
      }

      .cls-10 {
        fill: #544733;
      }

      .cls-11 {
        fill: #f3b896;
      }

      .cls-12 {
        fill: #83532f;
      }

      .cls-13 {
        fill: #f8a931;
      }

      .cls-14 {
        fill: #fdf5da;
      }

      .cls-15 {
        fill: #4a382c;
      }

      .cls-16 {
        fill: #c75f5a;
      }

      .cls-17 {
        fill: #f3daa8;
      }

      .cls-18 {
        fill: #562c1d;
      }
    </style>
    <radialGradient id="Degradado_sin_nombre_54" data-name="Degradado sin nombre 54" cx="-1334.15" cy="-372.94" fx="-1334.15" fy="-372.94" r="4.99" gradientTransform="translate(24729.85 -10828.52) scale(18.42 -29.54)" gradientUnits="userSpaceOnUse">
      <stop offset="0" stop-color="#eb705b"/>
      <stop offset="1" stop-color="#f3b896"/>
    </radialGradient>
    <radialGradient id="Degradado_sin_nombre_54-2" data-name="Degradado sin nombre 54" cx="-1179.9" fx="-1179.9" r="4.99" gradientTransform="translate(-21131.55 -10828.52) rotate(-180) scale(18.42 29.54)" xlink:href="#Degradado_sin_nombre_54"/>
    <radialGradient id="Degradado_sin_nombre_54-3" data-name="Degradado sin nombre 54" cx="-1307.56" cy="-376.1" fx="-1307.56" fy="-376.1" r="4.99" gradientTransform="translate(31099.78 -8675.55) scale(23.49 -23.49)" xlink:href="#Degradado_sin_nombre_54"/>
  </defs>
  <g id="Capa_1" data-name="Capa 1">
    <path class="cls-18" d="m15.04,1655.65c-2.28-1.27-4.12-3-5.48-5.03-3.25-4.82-3.73-11.24-.7-16.67l504.54-903.19,3.79.2,33.85,1.83L36.67,1649.5c-4.28,7.66-13.96,10.42-21.64,6.15Z"/>
    <path class="cls-12" d="m9.55,1650.62c-3.25-4.82-3.73-11.24-.7-16.67l504.54-903.19,12.38,2.98L9.55,1650.62Z"/>
    <path class="cls-13" d="m347.99,975.48s-121.46-.74-220.87-20.41C55.95,940.98-3.91,917.2.2,877.04c2.7-26.47,38.28-262.49,38.28-262.49,18.58-161.87,75.16-201.47,75.16-201.47l3.63,13.84,62.29,236.86-36.08,171.72,108.27,36.08,96.24,103.91Z"/>
    <path class="cls-9" d="m642.37,396.2s71.53,45.71,83.86,218.35c0,0,35.57,236.02,38.28,262.49,9.84,96.25-347.81,98.44-347.81,98.44l96.25-103.9,108.28-36.09-36.09-171.71,57.23-267.57Z"/>
    <path class="cls-5" d="m556.76,920.5c-.74,1.27-1.38,2.11-1.9,2.48-15.31,10.94-172.88,9.84-172.88,9.84,0,0-157.59,1.1-172.9-9.84,0,0,2.06-1.94,5.89-5.27,9.76-8.47,31.05-25.92,59.24-43.08l252.41,9.71,9.58,3.9c6.8,7.74,13.42,16.38,19.83,25.99.47.7.7,2.9.71,6.27Z"/>
    <path class="cls-8" d="m556.76,920.5c-.74,1.27-1.38,2.11-1.9,2.48-15.31,10.94-172.88,9.84-172.88,9.84,0,0-157.59,1.1-172.9-9.84-5.98-4.27-26.8-69.88-49.16-151.69-34.95-127.71-73.71-294.88-65.71-329.55,13.12-56.87,183.78-104.99,183.78-104.99h207.96s137.72,29.47,150.85,86.35c12.68,54.95-59.12,461.25-80.06,497.4Z"/>
    <path class="cls-5" d="m384.79,1818.01c.21,3.6.4,5.35,1.12,6.27.86,1.1,2.49.96,5.88,1.34,3.55.39,7.39,0,10.96,0l198.05.15,34.41.02s-17.62-68.95-60.95-77.21c-43.33-8.25-112.85,24.84-112.85,24.84l-6.26-8.28c-11,.22-21.6-1.55-32.02-5.16-2.26-.78-4.51-1.65-6.76-2.6-4.8-2.04-10.15-4.18-15.08-6.9-11.31,20.17-17.86,44.42-16.5,67.54Z"/>
    <polygon class="cls-5" points="638.31 1823.54 638.31 1834.05 441.08 1836.67 435.14 1829.02 427.86 1836.72 381.65 1837.9 383.43 1820.11 638.31 1823.54"/>
    <path class="cls-8" d="m457.29,1529.87l-22.1,235.26s-36.56,14.2-35.31-5.33c6.49-100.64,15.38-245.92,15.38-245.92l42.03,16Z"/>
    <path class="cls-5" d="m377.64,1818.01c-.21,3.6-.4,5.35-1.11,6.27-.86,1.1-2.49.96-5.89,1.34-3.55.39-7.39,0-10.96,0l-198.05.15-34.41.02s17.62-68.95,60.95-77.21c43.33-8.25,112.85,24.84,112.85,24.84l6.25-8.28c11,.22,21.6-1.55,32.02-5.16,2.27-.78,4.52-1.65,6.77-2.6,4.8-2.04,10.15-4.18,15.08-6.9,11.31,20.17,17.86,44.42,16.5,67.54Z"/>
    <path class="cls-6" d="m339.3,1759.96c-7.88,9.15-14.92,19.02-21.03,29.41-7.49-.88-14.98-1.78-22.47-2.66-10.58-1.25-21.28-2.51-31.87-1.3-23.22,2.63-43.27,16.62-64.34,26.71-12.15,5.81-24.88,10.37-37.95,13.63l-34.41.02s17.62-68.95,60.95-77.21c43.33-8.25,112.85,24.84,112.85,24.84l6.25-8.28c11,.22,21.6-1.55,32.02-5.16Z"/>
    <polygon class="cls-5" points="124.12 1823.54 124.12 1834.05 321.35 1836.67 327.3 1829.02 334.57 1836.72 380.79 1837.9 379.01 1820.11 124.12 1823.54"/>
    <path class="cls-8" d="m304.15,1529.87l22.09,235.26s36.57,14.2,35.31-5.33c-6.48-100.64-15.37-245.92-15.37-245.92l-42.03,16Z"/>
    <path class="cls-15" d="m402.65,962.97l-33.39,784.28-58.18,10.67-4.4.81-3.56.65-6.64,1.22s-73.49-88.61-94.39-275.35c-12.41-110.95-9.22-321.25-6.04-438.29.89-32.74,1.79-58.17,2.34-72.09.08-2.07,27.06-5.69,27.08-7.38.1-8.18.2-12.67.2-12.67l13.67.63,163.29,7.52Z"/>
    <path class="cls-10" d="m303.12,1759.39l-6.64,1.22s-73.49-88.61-94.39-275.35c-12.41-110.95-9.22-321.25-6.04-438.29,8.95,1.97,20.95,6.45,22.74,8.84,6.85,9.26.37,33.89-.3,44.96-2.18,35.94-4.19,71.89-5.55,107.87-2.77,72.6-3.01,145.41,2.9,217.87,9.36,115.07,34.79,230.31,87.28,332.88Z"/>
    <path class="cls-15" d="m581.93,954.32s-5.21,390.87-25.16,559.56c-19.72,166.73-86.18,248.39-86.18,248.39l-70.74-15.48-33.73-786.68,215.81-5.78Z"/>
    <path class="cls-5" d="m544.87,914.36c.03,8.48-1.38,24.96-3.77,44.4-141.16,32.53-300.66,6.76-317.59.4-.2-1.34-.4-2.66-.6-3.96-3.35-22.19-5.35-38.5-5.35-38.5,14.41,10.3,162.28,10.61,162.28,10.61,0,0,148.83-.32,163.24-10.61.48-.35,1.09-1.14,1.79-2.34Z"/>
    <path class="cls-9" d="m485.97,336.75s-13.26,682.95-20,747.69c0,0,110.6-1.99,124.08-17.64,13.48-15.65,62.13-580.7,61.57-617.21-.56-36.52-9.25-53.39-9.25-53.39,0,0-100.07-56.08-156.4-59.45Z"/>
    <path class="cls-9" d="m265.92,384.86c0-15.15.87-30.29,3.11-45.44-35.33,10.84-163.5,53.33-174.8,102.32-5.71,24.74,2.72,55.61,7,79.91,12.4,70.45,29.72,140.13,47.89,209.29,14.09,53.63,37.41,105.49,77.92,144.41,12.51,12.01,27.31,21.97,43.2,28.74-7.25-48.82-9.75-98.65-11.56-148.49-4.83-124.38,4.83-247.56,7.25-370.73Z"/>
    <path class="cls-14" d="m420.19,689.17c-.64-3.91-1.3-7.82-1.96-11.72-11.57-67.68-26.16-135.1-48.6-200.09-11.16-32.29-24.25-63.94-39.8-94.37-9.09-17.78-24.57-53.9-51.82-46.24-.02,0-3.31.93-8.98,2.67-2.24,15.15-3.11,30.3-3.11,45.44-2.42,123.17-12.08,246.35-7.25,370.73,1.81,49.84,4.31,99.67,11.56,148.49,31.73,13.51,67.76,14.27,98.43-6.9,32.72-22.58,50.97-61.8,56.49-101.17,4.97-35.45.81-71.42-4.96-106.84Z"/>
    <path class="cls-13" d="m304.75,1084.44s-76.9-1.39-110.26-10.92c-6.66-1.91-11.58-4.13-13.82-6.73-13.48-15.66-62.13-580.7-61.57-617.21.56-36.52,9.25-53.4,9.25-53.4,0,0,5.79-3.24,15.35-8.2,30.23-15.71,98.26-48.68,141.06-51.25,0,0,13.26,682.95,20,747.7Z"/>
    <path class="cls-3" d="m194.49,1073.53c-6.66-1.91-11.58-4.13-13.82-6.73-13.48-15.66-62.13-580.7-61.57-617.21.56-36.52,9.25-53.4,9.25-53.4,0,0,5.79-3.24,15.35-8.2.56.06,1.1.16,1.63.28-1.53,29.28-6.14,57.9-5.71,87.5.43,28.92,2.7,57.77,4.97,86.58,13.43,170.69,26.89,341.52,49.9,511.17Z"/>
    <path class="cls-3" d="m127.13,955.07C55.95,940.98-3.91,917.2.2,877.04c2.7-26.47,38.28-262.49,38.28-262.49,7.62-66.44,12.94-145.51,59.83-197.5,14.71-16.32,32.64-29.7,52.37-39.34,9.55-4.66,21.07-10.37,31.71-11.8,5.69-.76,16.45,3.24,11.68,10.97-2.84,4.6-29.33,9.96-35.44,13.05-36.84,18.59-61.64,46.11-76.69,84.1-25.37,64.01-26.85,136.15-37.47,203.53-7.61,48.33-15.8,96.62-20.75,145.32-1.22,11.98-2.24,23.98-3.01,35.99-.61,9.61-3.8,23.45-.49,32.7,6.4,17.9,33.99,27.75,49.28,35.81,18.84,9.95,38.07,19.19,57.62,27.67Z"/>
    <path class="cls-7" d="m204.99,177.57s-29.19-81.26-60.03-52.99c-34.63,31.74-5.51,107.76,6.06,120.12,0,0-14.87,52.99,7.71,75.96,22.58,22.96,49.01,13.25,55.07-22.08,6.06-35.33-8.81-121.01-8.81-121.01Z"/>
    <path class="cls-16" d="m162.14,167.55c-1.99-1.89-4.58-3.57-6.48-1.45-1.54,1.71-1.84,5.33-1.2,8.16.63,2.83,1.98,5.07,3.26,7.26,8.24,14.09,15.33,29.89,21.05,46.89-2.66.83-5.33,2.08-7.57,4.53-2.24,2.45-4.02,6.25-4.31,10.57-.45,6.67,2.61,12.65,5.94,16.71,2.77,3.38,5.86,6.08,9.13,7.97,1.54.89,3.32,1.58,4.77.35,1.32-1.12,1.99-3.52,2.48-5.79,7.66-35.39-8.24-77.24-27.07-95.19Z"/>
    <path class="cls-17" d="m139.89,132.1c-1.02,1.4-1.96,2.93-2.83,4.58-2.98,5.68-4.95,12.69-5.71,20.01-.57,5.45-1.18,13.2.61,18.19l.44.63.59-.68c1.57-3.98,2.09-8.76,2.99-13.24,1.84-9.25,5.42-17.59,10.14-23.66,1.8-2.32,11.07-9.85,10.1-14.32-.98-4.54-7.72.46-9.42,1.62-2.5,1.7-4.85,4.03-6.91,6.87Z"/>
    <path class="cls-1" d="m551.9,177.57s29.19-81.26,60.03-52.99c34.63,31.74,5.51,107.76-6.06,120.12,0,0,14.86,52.99-7.71,75.96-22.58,22.96-49.01,13.25-55.07-22.08-6.06-35.33,8.81-121.01,8.81-121.01Z"/>
    <path class="cls-16" d="m594.75,167.55c1.99-1.89,4.58-3.57,6.48-1.45,1.54,1.71,1.84,5.33,1.2,8.16-.63,2.83-1.98,5.07-3.26,7.26-8.24,14.09-15.33,29.89-21.05,46.89,2.66.83,5.33,2.08,7.57,4.53,2.24,2.45,4.02,6.25,4.31,10.57.45,6.67-2.61,12.65-5.94,16.71-2.77,3.38-5.86,6.08-9.14,7.97-1.54.89-3.32,1.58-4.77.35-1.32-1.12-1.99-3.52-2.48-5.79-7.66-35.39,8.24-77.24,27.07-95.19Z"/>
    <path class="cls-8" d="m398.66,22.93S479.08,0,562.11,6.97c63.75,5.35,32.88,160.75,19.42,183.56,0,0,25.92,34.66,2.53,81-23.39,46.34-185.41-248.6-185.41-248.6Z"/>
    <path class="cls-14" d="m402.94,23.24S289-10.28,197.47,3.2c-63.29,9.32-33.51,164.52-20.05,187.34,0,0-25.92,34.66-2.53,81,23.4,46.34,228.05-248.29,228.05-248.29Z"/>
    <path class="cls-17" d="m573.26,212.11c0,43.29-13.79,81.31-37.14,111.38l-.59.76c-2.84,3.63-5.82,7.14-8.95,10.51-.78.87-1.58,1.72-2.37,2.55l-.35.35c-.6.63-1.21,1.25-1.82,1.87-1.31,1.32-2.61,2.61-3.94,3.85-.55.51-1.08,1.02-1.63,1.52-15.35,14.2-33.26,25.78-53.02,34.34-1.41.6-2.84,1.2-4.26,1.78-.73.29-1.44.58-2.16.86-.73.28-1.44.57-2.16.83-.74.29-1.46.54-2.18.81-.76.28-1.52.56-2.29.82-.83.3-1.67.59-2.5.87l-.37.11c-1.15.4-2.3.77-3.46,1.12-5.93,1.87-11.88,3.45-17.87,4.76-1,.23-2.01.43-3,.63-1.94.42-3.9.77-5.85,1.11-.99.18-1.98.34-2.97.49-1.11.19-2.22.36-3.33.51-1.1.17-2.2.3-3.3.45-.65.1-1.28.18-1.92.24-1.39.18-2.78.34-4.16.46-.69.07-1.37.14-2.07.19l-.84.09c-1.32.11-2.67.22-4,.3-.96.07-1.93.14-2.89.18-1.2.07-2.39.12-3.58.17h-.5c-1.14.06-2.25.1-3.38.12h-1.01c-1.33.04-2.66.06-3.99.06-102.74,0-186.81-69.47-193.42-171.13-.28-4.26-.41-8.59-.41-12.96,0-82.5,32.69-155.25,108.48-185.8,24.02-9.68,52.35-15.12,85.35-15.29,31.21-.16,58.41,4.82,81.8,13.95,6.35,2.48,12.41,5.25,18.2,8.32,56.92,30.17,86.86,87.89,92.74,154.03.74,8.14,1.1,16.42,1.1,24.79Z"/>
    <path class="cls-11" d="m259.21,170.22c.67,4.44,1.87,9.35,4.54,10.94,2.62,1.55,5.44-.78,7.92-2.86,11.11-9.34,23.54-14.85,36.08-14.89,7.32-.02,14.65,1.87,21.57,5.69,3.55,1.96,7,4.43,10.26,7.42,2.69,2.47,4.88,6.71,7.72,3.13,4.79-6.04,7.07-24.2,8.34-33.2,1.72-12.28,2.35-24.92,2.24-37.49-.1-12.13-.97-24.83-5.22-34.86-.61-1.45-1.45-2.97-2.55-2.98-1.51-.02-2.9,1.64-4.43,1.78-2.55.22-5.5-.92-8.1-1.12-5.5-.44-11.03-.42-16.48.95-11.52,2.88-22.14,11.56-32.28,20.79-8.79,8-20.81,16.29-27.55,28.73-6,11.07-4,35.04-2.04,47.98Z"/>
    <path class="cls-14" d="m264.46,171.75s23.8,16.7,48.56,8.04c24.74-8.66,29.96-37.74,29.96-37.74l-18.29,6.92-37.81,14.3-22.43,8.48Z"/>
    <path class="cls-4" d="m286.89,163.27l.09.4c1.13,4.2,2.81,8.49,5.93,10.92,1.39,1.07,2.99,1.72,4.62,2.1,7.09,1.65,14.66-1.8,19.68-7.93,3.21-3.9,5.45-8.78,6.81-13.96.64-2.46.95-4.44.68-5.82l-37.81,14.3Z"/>
    <path class="cls-14" d="m285.67,169.36c-.67.68-1.33,1.53-1.39,2.57-.09,1.55,1.13,2.72,2.25,3.55,1.53,1.14,3.14,2.22,4.9,2.77l.97.07.9-.9c1.14-1.77,6.62-11.86,4.28-12.94-1.45-.67-4.85.76-6.28,1.3-2.04.77-3.99,1.93-5.63,3.58Z"/>
    <path class="cls-14" d="m344.26,125.27c-43.07-22.29-85.87,3.48-85.87,3.48,0,0,.92-5.23,2.75-12.59h0c3.72-14.92,11.2-38.59,22.46-45.39,18.36-11.11,46.84-5.81,60.47-2.28,4.84,1.24,7.81,2.28,7.81,2.28,1.46,28.19-7.62,54.5-7.62,54.5Z"/>
    <path class="cls-11" d="m573.25,212.11c0,43.29-13.78,81.32-37.13,111.38l-.59.76c-2.93,3.69-5.91,7.19-8.94,10.51-.79.87-1.58,1.71-2.38,2.54l-.34.36c-.6.62-1.21,1.26-1.83,1.86-1.3,1.33-2.61,2.61-3.93,3.85-.55.51-1.09,1.02-1.64,1.53-16.51,15.35-34.56,26.42-53.02,34.33-1.41.61-2.84,1.2-4.27,1.78-.72.29-1.43.58-2.15.86-.72.27-1.45.56-2.17.83-.73.29-1.46.55-2.18.81-.77.28-1.53.55-2.3.82-.83.3-1.67.59-2.5.87l-.36.11c-1.15.4-2.31.77-3.47,1.13-5.93,1.86-11.88,3.45-17.88,4.75-1,.23-2,.44-3,.64-1.94.41-3.89.77-5.84,1.1-.99.18-1.98.35-2.97.5-1.11.19-2.23.36-3.34.51-1.1.17-2.2.32-3.29.44-.65.1-1.29.18-1.92.25-1.39.18-2.77.33-4.15.46-.69.07-1.38.14-2.08.2l-.83.08c-1.33.11-2.67.22-4.01.3-.96.07-1.93.14-2.9.18-1.19.07-2.38.12-3.57.17h-.5c-1.13.07-2.25.1-3.37.12h-1.02c-1.33.04-2.66.06-3.99.06-102.74,0-186.81-69.47-193.41-171.12,1.23,1.82,2.42,4.03,3.67,5.77,17.08,23.77,38.56,38.93,60.76,45.13,29.56,8.23,60.23,1.27,88.58-14.44,9.55-5.3,19-11.68,27.2-21.16,11.34-13.09,19.76-31.59,26.08-51.36,2.72-8.5,2.64-18.5,6.49-25.91,3.85-7.41,10.03-11.78,15.9-12.99,10.51-2.18,8.66-20.54,9.38-28.67,1.19-13.33,1.82-26.7,1.88-40.09,13.56-1.74,27.2-4.45,39.43-10.55,12.24-6.1,23.05-15.95,28-28.69.13-.33,12.73,8.85,13.52,9.5,28.4,23.45,47.39,56.17,57.28,91.39,4.06,14.47,6.65,29.35,7.98,44.31.73,8.15,1.09,16.43,1.09,24.79Z"/>
    <path class="cls-14" d="m565.71,401.82c-49.95,55.57-137.58,70.76-154.65,100.36l6.06-31.45-16.62,31.45-27.39-28.68-1.4,24.98s-20.84-23.13-46.91-37.93c-7.52-4.28-26.87-8.2-49.27-16.86-55.21-21.35-128.94-71.49-89.94-226.54,0,0,26.14,24.24,79.91,42.3,27.42,9.22,62.03,16.82,104.02,18.79,2.65.13,15.23-47.65,17.92-47.54,3.77.15,15.15,48.91,18.76,49.02,114.79,3.6,167.07-60.63,167.07-60.63,0,0,42.4,127.16-7.55,182.73Z"/>
    <path class="cls-8" d="m565.71,401.82c-49.95,55.57-137.58,70.76-154.65,100.36l6.06-31.45-16.62,31.45-27.39-28.68-1.4,24.98s-20.84-23.13-46.91-37.93c-7.52-4.28-26.87-8.2-49.27-16.86,11.83-.56,23.68-.76,35.52-.64,15.76.16,32.76,1.36,44.86,11.46-1.35-16.28-6.53-32.23-14.99-46.2,20.74,5.71,40.32,15.53,57.31,28.72-5.92-30.96-21.11-60.09-43.11-82.68-17.5-17.96-38.97-31.68-56.52-49.6-10.19-10.42-26.88-28.78-33.11-45.3,27.42,9.22,62.03,16.82,104.02,18.79,2.65.13,15.23-47.65,17.92-47.54,3.77.15,15.15,48.91,18.76,49.02,114.79,3.6,167.07-60.63,167.07-60.63,0,0,42.4,127.16-7.55,182.73Z"/>
    <path class="cls-14" d="m512.79,171.75s-23.8,16.7-48.56,8.04c-24.75-8.66-29.96-37.74-29.96-37.74l18.28,6.92,37.81,14.3,22.43,8.48Z"/>
    <path class="cls-4" d="m490.36,163.27l-.09.4c-1.12,4.2-2.8,8.49-5.92,10.92-1.39,1.07-2.99,1.72-4.62,2.1-7.09,1.65-14.66-1.8-19.69-7.93-3.2-3.9-5.45-8.78-6.81-13.96-.64-2.46-.95-4.44-.67-5.82l37.81,14.3Z"/>
    <path class="cls-14" d="m463.44,159.95c.67.68,1.33,1.53,1.39,2.57.09,1.55-1.14,2.72-2.25,3.55-1.54,1.14-3.14,2.22-4.9,2.77l-.97.07-.89-.9c-1.14-1.77-6.62-11.86-4.28-12.94,1.45-.67,4.85.76,6.28,1.3,2.04.77,3.98,1.93,5.62,3.58Z"/>
    <path class="cls-14" d="m512.79,128.74s-42.79-25.77-85.87-3.48c0,0-9.08-26.31-7.61-54.5,0,0,43.41-15.04,68.27,0,16.82,10.17,25.21,57.99,25.21,57.99Z"/>
    <path class="cls-4" d="m560.19,99c-7.61-12.46-136.53-30.04-139.65-9.53,0,0-5.67,74.71,2.38,96.32,8.06,21.61,119.4,39.93,132.58,8.79,13.19-31.13,12.3-83.13,4.69-95.59Zm-19.97,83.79c-10,23.62-94.49,9.72-100.61-6.68-6.11-16.4-1.81-73.09-1.81-73.09,2.36-15.56,100.19-2.22,105.97,7.23,5.78,9.45,6.45,48.91-3.56,72.54Z"/>
    <path class="cls-4" d="m222.13,194.59c13.19,31.14,124.53,12.83,132.59-8.79,8.05-21.61,2.38-96.32,2.38-96.32-3.12-20.51-132.04-2.94-139.66,9.53-7.61,12.45-8.5,64.46,4.69,95.59Zm11.73-84.34c5.77-9.45,103.61-22.79,105.97-7.23,0,0,4.3,56.69-1.81,73.09-6.12,16.4-90.61,30.3-100.61,6.68-10-23.63-9.33-63.09-3.56-72.54Z"/>
    <path class="cls-4" d="m350.64,169.32l73.59,1.46v-14.15s-31.95-17.27-73.59,0v12.7Z"/>
    <path class="cls-14" d="m335.12,295.77c-79.57,4.56-81.06-63.18-81.06-63.18.49.87,1.12,1.82,1.88,2.84,9.01,12.06,35.55,32.1,48.37,2,17.12-40.19,50.54-27.12,50.54-27.12l32.56-18.62s1.8,8.94,2.39,21.59c1.37,29.64-3.92,79.59-54.67,82.5Z"/>
    <path class="cls-8" d="m335.12,295.77c-15.86.91-32.38-.83-46.69-8.18-9.04-4.65-16.79-11.49-22.5-19.9-2.38-3.51-4.4-7.25-6.08-11.14-2.19-5.08-4.72-12.28-4.47-17.85,9.38,14.24,20.41,27.61,36.48,34.38,16.46,6.94,39.21,7.9,49.46-9.41-6.14,1.52-13.11,1-18.96-1.44,2.21.92,8.4-2.95,10.22-4.09,2.86-1.8,5.31-4.02,7.26-6.79,3.99-5.65,5.72-12.93,4.45-19.76-1.27-6.77-5.08-17.45,1.85-22.7,2.8,3.31,5.8,5.57,10.27,6.17,6.32.84,10.99-2.47,16.88-2.87,1.67-.11,16.4-1.34,16.52,1.08,1.37,29.64-3.92,79.59-54.67,82.5Z"/>
    <path class="cls-8" d="m439.74,295.77c79.57,4.56,81.06-63.18,81.06-63.18-.49.87-1.12,1.82-1.88,2.84-9.01,12.06-35.55,32.1-48.37,2-17.12-40.19-50.54-27.12-50.54-27.12l-32.55-18.62s-1.8,8.94-2.39,21.59c-1.37,29.64,3.92,79.59,54.67,82.5Z"/>
    <path class="cls-2" d="m350.45,233.87c3.01,1.8,6.29,3.25,9.52,4.6,8.92,3.72,19.45,9.56,29.3,8.63,9.34-.88,17.88-5.84,26.06-10.04,9.52-4.9,19.24-12.28,21.83-23.31,1.41-5.99.95-12.25.1-18.34-3.73-26.6-15.02-52.1-32.2-72.74-5.74-6.89-14.38-13.83-22.78-10.67-3,1.13-5.39,3.41-7.57,5.76-19.22,20.76-29.59,51.89-36.32,78.86-2.63,10.53-2.45,22.7,4.52,31.03,2.11,2.53,4.72,4.53,7.55,6.23Z"/>
    <path class="cls-17" d="m351.71,175.54c-.58,3.16-1.06,6.44-.27,9.55.79,3.11,3.15,6.03,6.33,6.52,2.33.36,4.67-.63,6.66-1.9,7.02-4.46,11.16-12.26,14.24-19.98,3.36-8.45,5.8-18.12,2.16-26.46-4.08-9.36-13.91.53-17.78,5.09-6.55,7.74-9.56,17.34-11.35,27.18Z"/>
    <path class="cls-11" d="m351.29,275.76c4.28,13.03,57.85,13.67,70.44.72,12.59-12.95-36.79-14.87-36.79-14.87,0,0-36.8,4.56-33.64,14.16Z"/>
  </g>
</svg>