<?xml version="1.0" encoding="UTF-8"?>
<svg id="Layer_2" data-name="Layer 2" xmlns="http://www.w3.org/2000/svg" viewBox="0 0 560.61 1790.01">
  <defs>
    <style>
      .cls-1 {
        fill: #e7ebf4;
      }

      .cls-2 {
        fill: #232033;
      }

      .cls-3 {
        fill: #869ac9;
      }

      .cls-4 {
        fill: #29253b;
      }

      .cls-5 {
        fill: #693529;
      }

      .cls-6 {
        fill: #d16343;
      }

      .cls-7 {
        fill: #b3624b;
      }

      .cls-8 {
        fill: #b3b3b3;
      }

      .cls-9 {
        fill: #1a1a1a;
      }

      .cls-10 {
        fill: #ffa58f;
      }

      .cls-11 {
        fill: #f2f2f2;
      }

      .cls-12 {
        fill: #c2502f;
      }

      .cls-13 {
        fill: #cfd7e9;
      }
    </style>
  </defs>
  <g id="teamwork_business_character" data-name="teamwork business character">
    <g id="character">
      <g>
        <rect class="cls-10" x="223.84" y="241.61" width="108.97" height="129.61"/>
        <path class="cls-7" d="m332.8,241.61v39.86c-27.1,21.93-63.72,36.74-108.97,39.86v-79.72h108.97Z"/>
      </g>
      <path class="cls-4" d="m484.25,379.34c11.89,9.28,32.39,28.38,33.61,38.62,1.22,10.24,40.16,282.29,42.59,299.91,4.88,35.32-107.73-.94-111.99-23.97-4.26-23.03-51.3-190.77-51.3-190.77l45.44-133.19s29.1-.38,41.65,9.41Z"/>
      <path class="cls-2" d="m422.75,779.53c28.56,175.34,3.85,498.47-3.56,546.03-7.49,48.09-106.8-31.32-110.01-79.81-1.15-17.43,3.43-34.77,3.46-52.24.03-15.43-6.73-30.25-6.98-45.74-2.22-135.17-28.86-154.15-48.18-237.51l-31.27-130.74h196.54Z"/>
      <g>
        <path class="cls-8" d="m129.17,1788.53c21.13-10.1,39.75-20.76,44.99-31.62l2.34-96.04c.82-7.14,2.36-15.86-4.61-16.83l-31.72-4.38c-6.22-.86-12.03,3.04-13.67,9.21-3.53,13.24-15.95,57.03-15.95,57.03-20.64,20.35-41.28,40.71-61.92,61.06-6.3,6.21-12.99,12.55-13.61,21.57-.02.29,94.17,0,94.17,0Z"/>
        <path class="cls-9" d="m175.88,1686.25c-2-.3,5.17,51.32-18.36,55.17-1.51.24-3.03.35-4.56.39l-1.86-21.8s-33.43-15.43-58.47-13.48l-5.79,11.89-71.21,39.19c-5.89,5.81-14.79,14.59-15.62,26.7-.12,1.71.64,3.64,2.03,5.71h179.96s-4.12-103.45-6.12-103.76Z"/>
      </g>
      <g>
        <path class="cls-8" d="m488.25,1788.19s-4.32-15.2-9.1-21.47l-47.05-61.65s-5.92-39.88-7.52-51.9c-.74-5.6-5.36-9.79-10.87-9.88l-28.07-.48c-6.17-.1-11.26,4.96-11.34,11.3l-3.2,86.84c5.46,16.61,11.84,31.1,19.05,46.99l98.11.25Z"/>
        <path class="cls-9" d="m483.83,1762.95l-31.83-41.7-4.4-13.21c-21.56-5.09-52.35,3.84-52.35,3.84l-4.05,18.76c-1.33-.23-2.64-.54-3.92-.95-20.03-6.54-13.61-40.87-15.38-40.87-1.77,0-22.77,101.2-22.77,101.2h145.14c.07-.55.13-1.1.16-1.65.63-10.68-6.13-19.54-10.61-25.41Z"/>
      </g>
      <path class="cls-2" d="m136.92,769.53c-29.19,175.34-14.76,498.47-7.19,546.03,7.65,48.09,109.14-31.32,112.42-79.81,1.18-17.43-3.5-34.77-3.54-52.24-.03-15.43,3.56-30.65,7.13-45.74,19.74-83.36,61.45-166.72,81.19-250.08v-118.17h-190.02Z"/>
      <path class="cls-2" d="m111.51,1674.13c-1.24-69.06-.06-138.13,1.11-207.18.59-34.69,1.18-69.39,1.77-104.09.83-48.88,3.69-98.4,21.69-144.51,5.37-13.76,91.86-49.27,102.53-34.85,0,0,7.2,68.02,11.71,98.82,2.97,20.27-1.06,40.79-5.08,60.91-21.83,109.37-33.24,221.52-55.07,330.89h-78.66Z"/>
      <path class="cls-2" d="m438.76,1679.7c1.21-69.06-1.67-133.69-2.82-202.75-.58-34.69-1.16-69.39-1.73-104.09-.81-48.88-3.61-98.4-21.22-144.51-5.26-13.76-89.89-49.27-100.34-34.84,0,0-7.05,68.02-11.46,98.82-2.9,20.27,1.04,40.79,4.97,60.91,21.36,109.37,31.54,217.37,52.91,326.74l79.7-.29Z"/>
      <path class="cls-13" d="m202.05,842.47c-3.23,0-5.39,0-6.25-.02-16.23-.2-64.52-14.23-71.52-25.15,17.99-92.98,7.04-149.02-3.55-203.23-5.95-30.5-12.74-96.57-12.74-96.57-6.51-12.21-14.01-103.44-8.48-141.06l119.51-50.24,55.35,16.57h11.16l55.35-16.57,119.51,50.24c5.54,37.62-1.97,128.86-8.47,141.06,0,0-8.38,67.65-16.01,98.43-12.91,52.08-26.25,105.93-8.15,198.01l.08.41c-3.59,5.43-30.47,19.35-43.58,21.42-42.08,6.64-176.52,6.71-182.22,6.71Z"/>
      <g>
        <polygon class="cls-3" points="300.99 393.86 321.87 373.61 309.46 339.67 279.96 337.06 250.46 339.67 238.05 373.61 258.93 393.86 226.21 712.05 279.96 774.9 333.71 712.05 300.99 393.86"/>
        <polygon class="cls-1" points="337.42 298.81 279.96 337.06 300.99 341.35 317.85 428.61 373.91 340.37 337.42 298.81"/>
        <polygon class="cls-1" points="222.5 298.81 279.96 337.06 258.93 341.35 242.07 428.61 186.01 340.37 222.5 298.81"/>
      </g>
      <path class="cls-4" d="m76.36,377.8c-11.89,9.28-32.39,28.38-33.61,38.62-1.22,10.24-27.4,226.72-34.2,286.14-4.22,57.27,104.19,57.92,110.86,42.1,6.67-15.82,44.03-243.08,44.03-243.08l-45.44-133.19s-29.1-.38-41.65,9.41Z"/>
      <path class="cls-4" d="m474.61,374.44l-109.72-44.35-33.69,260.13-4.26,323.36c42.09,28.7,119.71,18.82,128.23,8.02,8.51-10.79-5.38-83.22-7.19-97.13-19.06-147.18,8.99-304.29,8.99-304.29,0,0,24.13-110.08,17.65-145.74Z"/>
      <path class="cls-4" d="m232.98,588.01l-37.95-257.92-106.73,42.07c-6.48,35.66,14.65,148.02,14.65,148.02,0,0,37.13,154.54,13.33,299.53-1.04,12.65-15.8,91.7-9.67,100.5s97.81,29.04,135.12,4.33l-8.75-336.53Z"/>
      <g>
        <path class="cls-10" d="m530.2,736.57c1.08-7.2-23.02-76.69-51.62-86.58-28.6-9.9-300.66-38.21-300.66-38.21,0,0-14.08,23.61-9.25,41.92,0,0,200.93,67.93,227.49,76.1,26.56,8.17,132.95,13.98,134.03,6.78Z"/>
        <path class="cls-10" d="m189.58,615.4s-54.8-22.05-58.33-23.87v79.69l50.45-17.03,7.88-38.8Z"/>
        <path class="cls-4" d="m220.94,601.06l-17.4,80.62s181.64,56.21,256.22,71.83c74.58,15.62,106.05-12.42,99.72-37.89-6.34-25.48-27.89-63.22-74.1-74.52-46.21-11.3-264.44-40.04-264.44-40.04Z"/>
      </g>
      <g>
        <path class="cls-10" d="m47.3,739.49c.28-7.28,23.63-89.49,53.57-93.91,29.94-4.42,335.31,40.66,335.31,40.66,0,0-13.62,41.97-24.77,46.5,0,0-153.07,5.8-207.52,12.49-27.59,3.39-156.86,1.54-156.59-5.74Z"/>
        <g>
          <path class="cls-10" d="m388.16,727.7c16.55,9.01,35.48,11.3,53.35,16.35,7.29,2.06,15.99,3.74,21.13-1.32,2.89-2.84,3.83-7.16,4.67-11.24,2.68-13.14-8.72-31.97-6.04-49.15,1.88-12.06,2.54-37.68-3.64-36.96-16.29,1.89-42.88,28.16-60,36.77-2.46,1.24-4.51,3.15-5.96,5.56-5.65,9.37-17.54,32.35-3.5,40Z"/>
          <path class="cls-10" d="m457.21,693.01c17.3.41,29.03-.37,42.72-3.59,8.58-2.02,17.98-9.45,43.77-24.88,9.59-5.74-3.45-12.82-13.64-8.17-15.24,6.97-12.34,6.48-31.15,12.58-15.28,4.95-29.45-1.39-44.53.87-10.15,1.52-7.49,22.94,2.83,23.19Z"/>
          <path class="cls-10" d="m458.43,712.47c24.33-1.69,32.72.9,48.23-3.12,11.78-3.05,17.55-7.93,36.46-15.11,12.97-4.93,5-19.21-7.95-14.29-19.36,7.36-26.16,10.15-26.16,10.15-19.82,5.53-40.44.72-60.55,3.79-13.53,2.07-3.74,19.53,9.97,18.58Z"/>
          <path class="cls-10" d="m457.04,727.96c20.65,3.93,40.33,5.61,50.13,3.98,4.55-.76,23.63-8.47,28.93-10.32,8.18-2.86,14.5-8.73,14.5-8.73,3.55-4.08-1.06-10.86-6.69-9.55-6.56,1.53-27.66,9.1-41.95,11.53-20.27,3.44-32.09-7.47-52.34-6.45-13.62.68-6.12,16.97,7.41,19.55Z"/>
          <path class="cls-10" d="m449.98,746.03c18.24,2.92,24.71,1.73,32.71,1.96,3.71.1,17.18-2.28,25.55-2.55,4.5-.15,17.04-2.48,17.04-2.48,3.29-3.09.61-8.84-4.02-8.62-5.4.25-15.48,1.03-27.13.75-16.53-.4-31.91-8.11-48.15-10.71-10.93-1.75-6.96,19.92,3.99,21.67Z"/>
          <path class="cls-10" d="m451.91,687.97c7.49-14.85,11.88-25.03,18.89-27.59,7.59-2.78,17.76-6.61,22.18-9.37,4.42-2.76,9.02-9.27,9.5-14.65.96-10.83-18.92-3.58-33.8-.8-11.84,2.22-18.07,6.49-23.26,11.46-6.44,6.17-28.44,28.17-28.44,28.17l34.92,12.78Z"/>
        </g>
      </g>
      <path class="cls-4" d="m373.91,746.87l17.48-83.31s-270.7-29.62-293.81-32.47-61.37,27.39-66.28,57.89c-4.91,30.51-.98,55.24,30.42,62.01,31.4,6.77,312.19-4.11,312.19-4.11Z"/>
      <g>
        <g>
          <g>
            <path class="cls-10" d="m333.47,227.47c4.74,1.33,9.94.33,14.33-1.84s8.1-5.42,11.59-8.78c9.21-8.87,17.78-20.05,17.13-32.59-.22-4.19-1.64-8.54-4.92-11.3-3.9-3.29-9.85-3.69-14.67-1.84-4.82,1.85-8.62,5.63-11.42,9.83l-12.04,46.53Z"/>
            <path class="cls-10" d="m218.26,227.47c-4.74,1.33-9.94.33-14.33-1.84s-8.1-5.42-11.59-8.78c-9.21-8.87-17.78-20.05-17.13-32.59.22-4.19,1.64-8.54,4.92-11.3,3.9-3.29,9.85-3.69,14.67-1.84,4.82,1.85,8.62,5.63,11.42,9.83l12.04,46.53Z"/>
          </g>
          <path class="cls-10" d="m352.31,233.54c3.65-39.21,13.87-62.07,20.19-84.73,4.51-16.97,9.08-45.97-10.65-71.53-19.5-26.56-68.44-41.65-113.25-28.95-45.13,12.72-70.16,39.1-64.7,69.14,2.76,17.98,5.35,42.86,8.35,61.41,2.49,15.42-2.2,30.89,3.51,45.92,10.62,25.85,51.67,71.21,84,71.21,26.42,0,70.03-45.36,72.55-62.47Z"/>
        </g>
        <path class="cls-11" d="m284.23,202.45c-.27.79-.59,1.47-.96,2.17-.38.68-.77,1.43-1.47,1.79-.66.35-1.66.1-2.44-1.02-.39-.55-.66-1.3-.77-2.16-.09-.85,0-1.81.31-2.73.33-.92.86-1.72,1.46-2.31.62-.59,1.3-.99,1.94-1.17,1.3-.37,2.23.09,2.52.79.31.73.15,1.57.02,2.34-.15.78-.33,1.52-.61,2.3Z"/>
        <path class="cls-6" d="m276.02,205.11c-.12-.54-.23-1.02-.32-1.45-.08-.43-.15-.81-.2-1.19-.05-.39-.08-.83-.06-1.33.02-.5.08-1.05.15-1.62.15-1.14.32-2.3.26-3.29-.05-.99-.33-1.8-.89-2.3-.56-.49-1.11-.48-1.71-.07-.59.41-1.26,1.23-1.94,2.44-.66,1.2-1.37,2.85-1.55,4.83-.09.98-.01,2.03.21,3.01.22.99.58,1.91,1,2.8.42.89.91,1.67,1.42,2.39.51.72,1.06,1.37,1.58,1.93,1.05,1.13,2.05,2,2.88,2.66,1.67,1.29,2.68,1.76,3.23.87.52-.84.47-1.87-.44-3.36-.44-.75-1.09-1.61-1.81-2.65-.35-.52-.72-1.09-1.05-1.7-.31-.6-.58-1.26-.76-1.95Z"/>
        <g>
          <path class="cls-9" d="m305.34,157.95c4.72-1.23,9.63-1.47,14.43-.76,4.81.7,16.26,12.48,11.95,11.31-4.28-1.2-8.54-2.11-12.83-2.76-4.29-.64-8.6-.99-13-1.08-4.41-.12-5.27-5.45-.56-6.72Z"/>
          <path class="cls-9" d="m247.01,157.51c-4.74-1.12-9.65-1.24-14.45-.41-4.79.82-16.03,12.87-11.75,11.6,4.26-1.31,8.5-2.32,12.78-3.07,4.28-.74,8.58-1.2,12.98-1.39,4.41-.23,5.17-5.58.44-6.73Z"/>
          <g>
            <path class="cls-9" d="m245.02,192.06l-.06-10.42c-.03-5.02-4.15-9.1-9.17-9.07h0c-5.02.03-9.1,4.15-9.07,9.17l.06,10.42c.03,5.01,18.26,4.91,18.24-.1Z"/>
            <path class="cls-9" d="m307.7,192.06l.06-10.42c.03-5.02,4.15-9.1,9.17-9.07h0c5.02.03,9.1,4.15,9.07,9.17l-.06,10.42c-.03,5.01-18.26,4.91-18.24-.1Z"/>
          </g>
        </g>
        <path class="cls-12" d="m259.74,225.44c7.31,10.66,21.65,14.86,33.58,9.95,1.06-.44,1.33-1.98.81-2.9-.62-1.1-1.83-1.25-2.9-.81-9.64,3.97-21.9.25-27.78-8.33-1.54-2.24-5.27-.18-3.71,2.08h0Z"/>
      </g>
      <g>
        <path class="cls-5" d="m378.29,131.24c2.09-11.15,2.99-22.43,1.15-33.56-2.88-17.34-13.8-34.4-30.73-40.04,9.25-6.1,10.1-20.06,4.37-29.45s-16.14-14.98-26.51-18.98c-34.96-13.48-76.51-12.88-108.46,6.53-31.82,19.34-49.66,65.06-42.32,94.4,7.35,29.34,10.56,44.64,30.86,43.49,17.97-1.01,33.88-11.57,47.57-23.07,13.69-11.5,34.21-32.22,50.4-39.96,12.78-6.1,28.59-8.16,41.41-3.1,14.93,32.31,11.12,69.35,12.68,107.56,4.58-13.9,11.39-30.87,15.24-45.35,1.62-6.08,3.15-12.26,4.31-18.48Z"/>
        <path class="cls-5" d="m193.01,193.56l8.84-96.78s-13.93-12.36-20.81-6.63,11.97,103.41,11.97,103.41Z"/>
      </g>
    </g>
  </g>
</svg>