<svg width="128" height="128" viewBox="0 0 128 128" fill="none" xmlns="http://www.w3.org/2000/svg">
<path d="M93.3333 117.333C93.3333 117.333 77.3333 112 64 112C50.6667 112 34.6667 117.333 34.6667 117.333V85.3333H93.3333V117.333Z" fill="#BF360C"/>
<path d="M37.3333 74.6667C37.3333 80.5573 32.5573 85.3333 26.6667 85.3333C20.776 85.3333 16 80.5573 16 74.6667C16 68.776 20.776 64 26.6667 64C32.5573 64 37.3333 68.776 37.3333 74.6667ZM112 74.6667C112 80.5573 107.224 85.3333 101.333 85.3333C95.4427 85.3333 90.6667 80.5573 90.6667 74.6667C90.6667 68.776 95.4427 64 101.333 64C107.224 64 112 68.776 112 74.6667Z" fill="#FFA726"/>
<path d="M101.333 48C101.333 14.0667 26.6667 25.9093 26.6667 48V72C26.6667 94.0907 43.384 112 64 112C84.616 112 101.333 94.0907 101.333 72V48Z" fill="#FFB74D"/>
<path d="M85.3333 69.3333C85.3333 72.28 82.9467 74.6667 80 74.6667C77.0533 74.6667 74.6667 72.28 74.6667 69.3333C74.6667 66.3867 77.0533 64 80 64C82.9467 64 85.3333 66.3867 85.3333 69.3333ZM53.3333 69.3333C53.3333 72.28 50.9467 74.6667 48 74.6667C45.0533 74.6667 42.6667 72.28 42.6667 69.3333C42.6667 66.3867 45.0533 64 48 64C50.9467 64 53.3333 66.3867 53.3333 69.3333Z" fill="#784719"/>
<path d="M64 10.6667C41.32 10.6667 7.99999 24 7.66666 96L34.6667 117.333V64L79.3333 40L93 58.6667L93.3333 117.333L120 96C120 64 118.552 18.6667 80 18.6667L74.6667 10.6667H64Z" fill="#FF5722"/>
<path d="M50.6667 93.3333H77.3333C77.3333 93.3333 72 101.333 64 101.333C56 101.333 50.6667 93.3333 50.6667 93.3333Z" fill="#FB8C00"/>
</svg>
