<?xml version="1.0" encoding="utf-8"?>
<!-- Generator: Adobe Illustrator 27.5.0, SVG Export Plug-In . SVG Version: 6.00 Build 0)  -->
<svg version="1.1" id="teamwork_business_character"
	 xmlns="http://www.w3.org/2000/svg" xmlns:xlink="http://www.w3.org/1999/xlink" x="0px" y="0px" viewBox="0 0 4000 3000"
	 style="enable-background:new 0 0 4000 3000;" xml:space="preserve">
<g id="teamwork_business_character_1_">
	<rect style="fill:#F7F7F7;" width="4000" height="3000"/>
	<path style="fill:#D5D3E0;" d="M3714.106,2374.579c0,0-767.431,49.424-1714.106,49.424s-1714.106,0.754-1714.106-49.424
		s767.431-90.855,1714.106-90.855S3714.106,2374.579,3714.106,2374.579z"/>
	<g id="character_4_">
		<g>
			<g>
				<rect x="1923.657" y="832.747" style="fill:#F0B297;" width="108.966" height="129.61"/>
				<path style="fill:#D1785E;" d="M2032.623,832.747v39.86c-27.098,21.929-63.724,36.737-108.966,39.86v-79.719H2032.623z"/>
			</g>
		</g>
		<g>
			<g>
				<g>
					<path style="fill:#F0B297;" d="M2035.616,815.257c4.846,1.357,10.158,0.334,14.65-1.882c4.492-2.216,8.281-5.541,11.85-8.978
						c9.419-9.072,18.178-20.504,17.51-33.317c-0.224-4.286-1.674-8.729-5.026-11.558c-3.991-3.368-10.072-3.776-15.002-1.887
						c-4.93,1.89-8.81,5.753-11.675,10.055L2035.616,815.257z"/>
					<path style="fill:#F0B297;" d="M1917.827,815.257c-4.846,1.357-10.158,0.334-14.65-1.882c-4.492-2.216-8.281-5.541-11.85-8.978
						c-9.419-9.072-18.178-20.504-17.51-33.317c0.224-4.286,1.674-8.729,5.026-11.558c3.991-3.368,10.071-3.776,15.002-1.887
						c4.93,1.89,8.81,5.753,11.675,10.055L1917.827,815.257z"/>
				</g>
				<path style="fill:#F0B297;" d="M2054.875,821.46c3.729-40.087,14.181-63.46,20.643-86.622
					c4.615-17.353,9.287-46.999-10.89-73.135c-19.938-27.154-69.977-42.578-115.79-29.597c-46.139,13-71.734,39.977-66.147,70.684
					c2.822,18.387,5.469,43.822,8.542,62.79c2.549,15.769-2.247,31.584,3.583,46.947c10.86,26.433,52.825,72.799,85.879,72.799
					C2007.707,885.324,2052.3,838.952,2054.875,821.46z"/>
			</g>
			<path style="fill:#F2F2F2;" d="M1986.491,783.19c-0.272,0.807-0.606,1.507-0.985,2.221c-0.391,0.694-0.792,1.461-1.505,1.833
				c-0.677,0.362-1.698,0.106-2.49-1.044c-0.395-0.565-0.676-1.329-0.788-2.205c-0.095-0.87-0.007-1.847,0.32-2.793
				c0.338-0.942,0.88-1.753,1.496-2.364c0.633-0.604,1.327-1.012,1.985-1.193c1.33-0.376,2.278,0.087,2.575,0.805
				c0.318,0.749,0.149,1.6,0.018,2.389C1986.964,781.635,1986.785,782.391,1986.491,783.19z"/>
			<path style="fill:#D1785E;" d="M1978.097,785.914c-0.128-0.55-0.237-1.042-0.323-1.482c-0.078-0.44-0.151-0.824-0.205-1.213
				c-0.05-0.4-0.079-0.85-0.061-1.364c0.016-0.512,0.076-1.079,0.149-1.658c0.15-1.16,0.329-2.353,0.268-3.362
				c-0.053-1.011-0.338-1.842-0.912-2.349c-0.574-0.504-1.132-0.494-1.743-0.074c-0.606,0.423-1.288,1.263-1.983,2.492
				c-0.678,1.221-1.404,2.91-1.589,4.938c-0.096,1.005-0.011,2.08,0.215,3.079c0.22,1.009,0.59,1.958,1.019,2.861
				c0.43,0.905,0.931,1.707,1.452,2.444c0.524,0.739,1.082,1.396,1.614,1.97c1.077,1.156,2.095,2.049,2.942,2.716
				c1.712,1.32,2.738,1.8,3.302,0.887c0.528-0.857,0.478-1.911-0.447-3.438c-0.45-0.765-1.12-1.648-1.854-2.712
				c-0.363-0.532-0.739-1.11-1.071-1.736C1978.553,787.301,1978.272,786.621,1978.097,785.914z"/>
			<g>
				<path style="fill:#1A1A1A;" d="M2006.251,744.774c4.463-1.029,9.105-1.226,13.653-0.635c4.548,0.588,9.009,1.977,13.106,4.124
					c4.077,2.17,2.272,6.307-1.8,5.326c-4.053-1.005-8.077-1.767-12.131-2.305c-4.055-0.533-8.134-0.829-12.295-0.899
					C2002.61,750.287,2001.802,745.832,2006.251,744.774z"/>
				<path style="fill:#1A1A1A;" d="M1951.08,744.41c-4.482-0.933-9.128-1.032-13.663-0.344c-4.536,0.684-8.968,2.168-13.021,4.402
					c-4.033,2.257-2.146,6.354,1.905,5.287c4.032-1.091,8.04-1.939,12.083-2.563c4.043-0.619,8.116-1.002,12.275-1.16
					C1954.83,749.844,1955.549,745.372,1951.08,744.41z"/>
				<g>
					<g>
						<path style="fill:#1A1A1A;" d="M1946.812,778.557l-0.059-10.654c-0.028-5.127-4.246-9.299-9.373-9.271l0,0
							c-5.127,0.028-9.299,4.246-9.271,9.374l0.058,10.654C1928.196,783.786,1946.84,783.684,1946.812,778.557z"/>
					</g>
					<g>
						<path style="fill:#1A1A1A;" d="M2010.889,778.557l0.058-10.654c0.028-5.127,4.246-9.299,9.374-9.271l0,0
							c5.127,0.028,9.299,4.246,9.271,9.374l-0.058,10.654C2029.506,783.786,2010.861,783.684,2010.889,778.557z"/>
					</g>
				</g>
			</g>
			<path style="fill:#A33939;" d="M1958.825,819.233c15.92,6.665,34.854,3.764,48.318-6.896c2.079-1.646-0.856-4.545-2.915-2.915
				c-12.368,9.793-29.835,11.895-44.307,5.836c-1.035-0.433-2.256,0.468-2.536,1.439
				C1957.046,817.881,1957.803,818.805,1958.825,819.233L1958.825,819.233z"/>
		</g>
		<path style="fill:#29253B;" d="M2184.072,970.477c11.894,9.276,32.39,28.38,33.611,38.618
			c1.22,10.238,40.158,282.294,42.591,299.907c4.877,35.322-107.729-0.937-111.988-23.967c-4.259-23.03-51.3-190.771-51.3-190.771
			l45.439-133.192C2142.426,961.071,2171.522,960.69,2184.072,970.477z"/>
		<path style="fill:#232033;" d="M2122.57,1370.666c28.564,175.341,3.849,498.473-3.556,546.027
			c-7.489,48.088-106.803-31.32-110.011-79.812c-1.153-17.429,3.427-34.774,3.461-52.236c0.03-15.427-6.726-30.253-6.98-45.736
			c-2.219-135.171-28.858-154.149-48.18-237.507l-31.273-130.736H2122.57z"/>
		<g>
			<path style="fill:#B3B3B3;" d="M1828.994,2379.669c21.129-10.097,39.753-20.76,44.99-31.617l2.335-96.042
				c0.817-7.141,2.365-15.862-4.613-16.826l-31.721-4.381c-6.22-0.859-12.029,3.043-13.674,9.206
				c-3.534,13.234-15.952,57.031-15.952,57.031c-20.641,20.353-41.283,40.706-61.924,61.059c-6.298,6.21-12.993,12.55-13.609,21.569
				C1734.806,2379.958,1828.994,2379.669,1828.994,2379.669z"/>
			<path style="fill:#1A1A1A;" d="M1875.702,2277.389c-1.998-0.305,5.166,51.322-18.36,55.167c-1.51,0.238-3.031,0.355-4.561,0.384
				l-1.862-21.803c0,0-33.426-15.433-58.472-13.483l-5.79,11.893l-71.206,39.186c-5.89,5.808-14.792,14.587-15.618,26.703
				c-0.117,1.706,0.642,3.643,2.033,5.709h179.959C1881.824,2381.145,1877.701,2277.694,1875.702,2277.389z"/>
		</g>
		<g>
			<path style="fill:#B3B3B3;" d="M2188.071,2379.325c0,0-4.319-15.202-9.104-21.471l-47.049-61.646c0,0-5.923-39.882-7.522-51.904
				c-0.745-5.598-5.362-9.789-10.866-9.882l-28.071-0.477c-6.175-0.105-11.259,4.958-11.344,11.298l-3.203,86.837
				c5.46,16.613,11.835,31.101,19.049,46.994L2188.071,2379.325z"/>
			<path style="fill:#1A1A1A;" d="M2183.65,2354.088l-31.829-41.704l-4.395-13.215c-21.563-5.094-52.347,3.837-52.347,3.837
				l-4.047,18.764c-1.327-0.233-2.637-0.541-3.923-0.953c-20.03-6.541-13.613-40.867-15.385-40.872
				c-1.772-0.004-22.765,101.199-22.765,101.199h145.136c0.071-0.547,0.13-1.097,0.163-1.65
				C2194.888,2368.815,2188.125,2359.953,2183.65,2354.088z"/>
		</g>
		<path style="fill:#232033;" d="M1836.74,1360.666c-29.189,175.341-14.757,498.473-7.19,546.027
			c7.653,48.088,109.14-31.321,112.419-79.812c1.178-17.429-3.502-34.774-3.536-52.236c-0.031-15.427,3.56-30.651,7.133-45.736
			c19.745-83.359,61.447-166.718,81.192-250.077v-118.167H1836.74z"/>
		<path style="fill:#232033;" d="M1811.329,2265.266c-1.237-69.056-0.061-138.126,1.114-207.183
			c0.59-34.695,1.181-69.391,1.772-104.086c0.832-48.881,3.69-98.396,21.687-144.507c5.37-13.76,91.859-49.274,102.531-34.846
			c0,0,7.202,68.019,11.712,98.823c2.968,20.272-1.063,40.788-5.08,60.912c-21.833,109.368-33.242,221.518-55.074,330.886H1811.329z
			"/>
		<path style="fill:#232033;" d="M2138.579,2270.834c1.21-69.056-1.673-133.694-2.823-202.75
			c-0.578-34.695-1.156-69.39-1.734-104.086c-0.814-48.881-3.611-98.396-21.222-144.507c-5.255-13.76-89.892-49.274-100.336-34.845
			c0,0-7.048,68.019-11.461,98.823c-2.904,20.272,1.04,40.788,4.972,60.912c21.365,109.368,31.542,217.374,52.907,326.742
			L2138.579,2270.834z"/>
		<path style="fill:#CFD7E9;" d="M1901.869,1433.602c-3.227,0-5.389-0.009-6.254-0.02c-16.227-0.203-64.518-14.228-71.515-25.151
			c17.987-92.984,7.041-149.022-3.546-203.233c-5.953-30.496-12.742-96.566-12.742-96.566
			c-6.505-12.206-14.014-103.439-8.474-141.064l119.514-50.242l55.347,16.568h11.164l55.349-16.568l119.514,50.242
			c5.54,37.625-1.97,128.858-8.475,141.064c0,0-8.384,67.653-16.01,98.425c-12.906,52.08-26.25,105.933-8.153,198.006l0.08,0.41
			c-3.594,5.426-30.468,19.349-43.577,21.416C2042.006,1433.526,1907.57,1433.602,1901.869,1433.602z"/>
		<g>
			<polygon style="fill:#869AC9;" points="2000.812,984.993 2021.69,964.744 2009.277,930.81 1979.782,928.192 1950.286,930.81 
				1937.873,964.744 1958.752,984.993 1926.031,1303.19 1979.782,1366.041 2033.533,1303.19 			"/>
			<g>
				<g>
					<polygon style="fill:#E7EBF4;" points="2037.24,889.95 1979.782,928.192 2000.812,932.49 2017.672,1019.742 2073.733,931.504 
											"/>
				</g>
			</g>
			<g>
				<g>
					<polygon style="fill:#E7EBF4;" points="1922.324,889.95 1979.782,928.192 1958.752,932.49 1941.891,1019.742 1885.83,931.504 
											"/>
				</g>
			</g>
		</g>
		<path style="fill:#29253B;" d="M1776.177,968.933c-11.894,9.276-32.39,28.379-33.61,38.618
			c-1.22,10.238-27.402,226.719-34.196,286.144c-4.22,57.274,104.188,57.924,110.863,42.105
			c6.675-15.819,44.03-243.081,44.03-243.081l-45.44-133.192C1817.823,959.526,1788.727,959.145,1776.177,968.933z"/>
		<path style="fill:#29253B;" d="M2174.433,965.577l-109.725-44.35l-33.688,260.127l-4.262,323.358
			c42.094,28.7,119.714,18.816,128.227,8.023c8.513-10.793-5.384-83.216-7.186-97.133c-19.059-147.177,8.986-304.286,8.986-304.286
			S2180.915,1001.242,2174.433,965.577z"/>
		<path style="fill:#29253B;" d="M1932.806,1179.146l-37.95-257.92l-106.729,42.065c-6.482,35.665,14.652,148.023,14.652,148.023
			s37.133,154.54,13.327,299.534c-1.035,12.653-15.804,91.701-9.672,100.498c6.132,8.797,97.809,29.036,135.123,4.332
			L1932.806,1179.146z"/>
		<g>
			<g>
				<path style="fill:#2C1E1C;" d="M2048.6,726.065c-4.055-0.255-8.114-1.265-11.682-2.895c-9.648-4.405-20.245-7.326-25.56-15.762
					c-7.126-11.308-0.211-27.024-10.473-30.13c-16.283-4.928-48.643,10.26-63.093,1.938c-3.059-1.762-5.615-4.168-7.515-6.938
					c-3.465,4.908-8.568,9.266-13.503,13.118c-8.905,6.951-18.711,14.953-19.306,25.505c-0.366,6.484,2.916,12.624,4.698,18.918
					c3.382,11.946-6.176,47.69-6.176,47.69c-3.54-4.853-13.555-22.995-16.104-30.686c-2.954-8.912-1.527-18.545-3.729-27.629
					c-2.364-9.756-8.811-18.469-10.804-28.291c-2.272-11.195,1.951-23.21,10.66-31.46c-0.673-5.444-0.87-10.92-0.25-16.381
					c1.32-11.624,6.775-23.307,17.083-30.494c9.147-6.378,22.454-8.361,32.742-3.947c18.041-15.537,39.24-29.662,63.463-27.232
					c21.804,2.188,38.833,17.368,58.909,25.281c11.757,4.634,24.578,6.756,36.458,11.131c11.88,4.375,23.383,11.773,27.392,22.682
					c2.023,5.505,1.273,11.874-1.599,17.031c3.432,2.447,6.067,6.007,7.003,9.823c2.069,8.431-1.773,17.089-6.335,24.698
					c-4.562,7.608-24.259,17.777-25.805,26.297c-1.746,9.621-18.794,59.178-18.794,59.178l-11.597-51.656
					C2052.698,726.13,2050.649,726.194,2048.6,726.065z"/>
			</g>
		</g>
		<g>
			<g>
				<path style="fill:#F0B297;" d="M2230.017,1327.709c1.08-7.202-23.019-76.687-51.619-86.584
					c-28.6-9.897-300.658-38.212-300.658-38.212s-14.078,23.607-9.249,41.923c0,0,200.929,67.925,227.493,76.097
					C2122.548,1329.104,2228.937,1334.911,2230.017,1327.709z"/>
			</g>
			<path style="fill:#F0B297;" d="M1889.401,1206.537c0,0-54.804-22.052-58.327-23.866v79.694l50.45-17.027L1889.401,1206.537z"/>
			<path style="fill:#29253B;" d="M1920.757,1192.191l-17.404,80.621c0,0,181.642,56.211,256.219,71.833
				s106.055-12.416,99.72-37.893c-6.335-25.476-27.892-63.219-74.098-74.522C2138.988,1220.927,1920.757,1192.191,1920.757,1192.191
				z"/>
		</g>
		<g>
			<g>
				<path style="fill:#F0B297;" d="M1747.118,1330.63c0.276-7.277,23.628-89.489,53.567-93.905
					c29.94-4.416,335.311,40.655,335.311,40.655s-13.619,41.974-24.772,46.5c0,0-153.065,5.803-207.519,12.488
					C1876.12,1339.753,1746.842,1337.907,1747.118,1330.63z"/>
			</g>
			<g>
				<g>
					<g>
						<path style="fill:#F0B297;" d="M2087.979,1318.831c16.553,9.014,35.477,11.303,53.349,16.349
							c7.288,2.058,15.989,3.742,21.126-1.32c2.885-2.843,3.834-7.155,4.666-11.239c2.676-13.141-8.724-31.973-6.044-49.15
							c1.881-12.056,2.543-37.676-3.642-36.96c-16.286,1.886-42.884,28.155-59.996,36.766c-2.457,1.236-4.512,3.15-5.963,5.557
							C2085.822,1288.206,2073.939,1311.185,2087.979,1318.831z"/>
						<path style="fill:#F0B297;" d="M2157.031,1284.145c17.301,0.414,29.03-0.372,42.715-3.592
							c8.578-2.019,17.979-9.453,43.77-24.882c9.588-5.736-3.445-12.825-13.636-8.165c-15.237,6.967-12.335,6.479-31.152,12.579
							c-15.278,4.953-29.446-1.39-44.532,0.87C2144.043,1262.475,2146.71,1283.898,2157.031,1284.145z"/>
						<path style="fill:#F0B297;" d="M2158.255,1303.61c24.331-1.688,32.722,0.901,48.229-3.117
							c11.778-3.052,17.548-7.927,36.456-15.115c12.97-4.93,5.001-19.211-7.947-14.289c-19.358,7.359-26.158,10.154-26.158,10.154
							c-19.824,5.531-40.437,0.721-60.549,3.792C2134.752,1287.101,2144.548,1304.561,2158.255,1303.61z"/>
						<path style="fill:#F0B297;" d="M2156.863,1319.099c20.652,3.934,40.325,5.606,50.134,3.978
							c4.547-0.755,23.634-8.466,28.933-10.321c8.182-2.864,14.502-8.735,14.502-8.735c3.553-4.081-1.063-10.86-6.687-9.548
							c-6.561,1.531-27.665,9.105-41.952,11.528c-20.268,3.438-32.093-7.466-52.337-6.451
							C2135.833,1300.233,2143.334,1316.522,2156.863,1319.099z"/>
						<path style="fill:#F0B297;" d="M2149.798,1337.165c18.243,2.916,24.713,1.73,32.711,1.956
							c3.707,0.105,17.182-2.281,25.554-2.551c4.504-0.145,17.042-2.482,17.042-2.482c3.29-3.087,0.606-8.839-4.021-8.625
							c-5.399,0.25-15.478,1.03-27.132,0.748c-16.533-0.4-31.905-8.115-48.146-10.711
							C2134.876,1313.753,2138.845,1335.414,2149.798,1337.165z"/>
						<path style="fill:#F0B297;" d="M2151.732,1279.107c7.486-14.853,11.883-25.025,18.885-27.586
							c7.587-2.775,17.762-6.61,22.185-9.373c4.422-2.763,9.024-9.266,9.499-14.651c0.956-10.827-18.921-3.581-33.799-0.796
							c-11.837,2.216-18.072,6.493-23.255,11.458c-6.436,6.166-28.437,28.169-28.437,28.169L2151.732,1279.107z"/>
					</g>
				</g>
			</g>
		</g>
		<path style="fill:#29253B;" d="M2073.733,1338.004l17.485-83.31c0,0-270.702-29.625-293.809-32.473
			c-23.108-2.848-61.372,27.385-66.278,57.891c-4.906,30.507-0.981,55.242,30.415,62.007S2073.733,1338.004,2073.733,1338.004z"/>
	</g>
	<g id="character_3_">
		<path style="fill:#F2AE83;" d="M1093.734,1443.838c0,0-11.407,7.86-25.179-2.605c0,0,0.843-199.412,5.026-217.568
			c4.183-18.155,32.513-38.847,45.719-27.023c11.604,10.39,20.876,22.435,19.744,48.629
			C1137.911,1271.465,1093.734,1443.838,1093.734,1443.838z"/>
		<g>
			<g>
				<g>
					<g>
						<path style="fill:#F2AE83;" d="M1108.319,1435.15c0,0-5.67,37.712-4.487,43.029s13.685,42.837,10.801,49.138
							c-2.885,6.301-11.579,1.218-15.04-9.811c-3.461-11.029-11.565-38.406-11.104-43.132c0.462-4.726-2.307-22.845-1.689-28.005
							C1087.418,1441.21,1100.387,1417.621,1108.319,1435.15z"/>
						<path style="fill:#F2AE83;" d="M1090.508,1449.905c5.516,6.402,2.745,30.341,4.036,32.273s16.17,26.607,20.282,35.425
							c4.112,8.817-4.911,9.976-12.853,0.76s-18.666-27.26-20.077-30.703c-1.41-3.443-11.951-31.206-13.288-38.536
							C1067.273,1441.794,1082.567,1440.689,1090.508,1449.905z"/>
						<path style="fill:#F2AE83;" d="M1079.21,1447.493c5.516,6.402,5.002,30.969,6.293,32.901
							c1.291,1.932,20.417,20.551,24.529,29.368s-4.911,9.976-12.853,0.76c-7.941-9.216-25.968-23.526-27.378-26.969
							c-1.41-3.443-6.675-29.308-8.011-36.638C1060.453,1439.586,1071.269,1438.277,1079.21,1447.493z"/>
						<path style="fill:#F2AE83;" d="M1112.39,1436.002c0.193,3.519-2.812,10.924-6.882,18.335c-2.63-0.528-5.267-0.978-7.903-1.379
							c-9.764-1.486-19.516-2.339-29.282-4.026c-2.172-0.375-4.35-0.798-6.522-1.281c-2.905-19.07,2.178-63.143,28.351-52.914
							C1090.153,1394.738,1111.951,1428.017,1112.39,1436.002z"/>
					</g>
					<path style="fill:#F2AE83;" d="M1089.567,1394.527c0,0,18.027,14.31,24.079,20.033c4.337,4.102,15.58,18.812,17.105,20.094
						c1.525,1.282-4.277,27.083-6.002,30.498c-1.725,3.416-7.792,2.335-12.167-6.21c-4.376-8.545-0.259-21.375-0.259-21.375
						s-23.338-12.428-28.799-22.098C1078.064,1405.802,1089.567,1394.527,1089.567,1394.527z"/>
				</g>
			</g>
		</g>
		<g>
			<path style="fill:#A3400F;" d="M1360.394,723.532c19.311,45.724,21.16,139.779,31.79,238.406l-22.444-0.581l-15.366-224.283
				L1360.394,723.532z"/>
			<path style="fill:#A3400F;" d="M1158.343,730.143c-12.647,93.403-5.054,196.555-5.046,299.728
				c74.486,13.384,151.039,15.215,226.083,5.427c-0.938-90.919-8.159-181.772-21.591-271.698c0,0-23.821-70.754-83.007-67.37
				C1215.596,699.614,1158.343,730.143,1158.343,730.143z"/>
		</g>
		<path style="fill:#F2AE83;" d="M1491.654,1240.162c6.135-7.014,15.974-29.8,15.393-42.755
			c-0.581-12.955-55.726-153.357-55.726-153.357s-64.291,20.45-66.572,47.85c0,0,59.685,138.267,64.675,142.693
			C1460.555,1244.467,1485.169,1247.576,1491.654,1240.162z"/>
		<path style="fill:#29253B;" d="M1390.343,938.542c12.319,5.517,34.214,17.733,37.464,26.368
			c3.25,8.635,46.538,111.731,65.15,161.914c-15.24,30.148-48.598,34.8-81.551,42.37c-25.204-36.395-35.932-74.076-50.093-116.014
			l-9.85-114.079C1351.463,939.102,1377.345,932.721,1390.343,938.542z"/>
		<g>
			<path style="fill:#F2AE83;" d="M1145.088,1762.907c4.86-47.081,5.302-81.909,51.587-83.488
				c31.291-1.069,49.631,2.254,51.718,31.102c0,0-21.872,150.067-31.642,232.635c-8.826,74.586-21.262,214.844-27.652,315.039
				l-38.94-1.73c-1.991-31.041-24.445-248.858-29.631-304.562C1108.292,1820.469,1140.541,1806.953,1145.088,1762.907z"/>
			<path style="fill:#F8A588;" d="M1242.459,1748.399l56.029-311.262c0,0-58.134-14.708-87.518-23.17
				c-93.227-26.845-48.781,293.983-48.671,321.292C1162.47,1777.409,1229.422,1785.689,1242.459,1748.399z"/>
			<g>
				<path style="fill:#92372B;" d="M1205.627,2252.642c-0.251-21.256-13.779-25.682-13.779-25.682l-44.494,17.457
					c0,0-73.308,148.212-62.257,151.533l79.192,2.121c22.815,0.502,16.904-35.743,25.731-54.957l-0.416,55.459h9.931l4.63-77.252
					c0.755-2.715,1.278-5.029,1.485-6.753C1206.745,2305.449,1205.963,2281.048,1205.627,2252.642z"/>
				<path style="fill:#F2AE83;" d="M1154.607,2222.754c-3.887,10.886-20.528,52.953-24.809,66.32
					c-3.147,9.825-10.051,31.223-14.934,46.346c-2.696,8.35,3.347,16.952,12.116,17.259l33.911,1.186l35.216-117.704
					c0.424-3.468,0.68-21.328-6.797-25.782C1181.832,2205.923,1158.494,2211.867,1154.607,2222.754z"/>
			</g>
		</g>
		<g>
			<path style="fill:#F2AE83;" d="M1293.688,1751.783c0-13.978,2.606-44.703,48.891-46.282
				c31.291-1.069,43.808,11.167,45.895,40.016c0,0,12.654,55.344,29.824,131.204c15.973,70.571-59.384,222.286-46.049,364.297
				l-38.94-1.73c-1.991-31.041-8.412-181.631-13.598-237.335C1307.477,1870.518,1293.688,1751.783,1293.688,1751.783z"/>
			<g>
				<path style="fill:#92372B;" d="M1378.216,2225.718c0,0,27.049,104.452,30.828,121.646c3.779,17.194-2.387,40.41-8.331,46.857
					c-5.944,6.448-63.576,4.76-75.813,1.178c-12.237-3.582,8.152-163.427,8.152-163.427L1378.216,2225.718z"/>
				<path style="fill:#F2AE83;" d="M1332.569,2208.609c0,11.741-1.621,57.109-1.129,71.525c0.59,17.311,2.18,67.937,2.18,67.937
					s44.361,3.107,49.82-2.19c15.504-15.044,8.576-46.566,8.576-46.566l-13.161-76.247c-0.814-3.74-6.934-23.001-16.002-27.805
					C1353.785,2190.458,1332.569,2196.868,1332.569,2208.609z"/>
			</g>
			<path style="fill:#F8C8B8;" d="M1296.317,1770.736l-2.628-316.254c0,0,59.783-4.674,90.174-8.048
				c96.423-10.706-10.718,282.358-9.55,309.642C1375.765,1790.022,1302.865,1809.693,1296.317,1770.736z"/>
		</g>
		<path style="fill:#869AC9;" d="M1402.18,1064.807c-10.657-11.161-38.201-127.306-38.201-127.306h-91.523h-91.523
			c0,0-27.544,116.145-38.201,127.306c-38.115,39.917,5.255,118.686,19.799,141.456c20.073,65.689,14.67,95.052,15.047,155.782
			c33.101,5.706,63.807,8.388,94.878,9.306c31.071-0.918,61.777-3.601,94.878-9.306c0.377-60.73-5.026-90.093,15.047-155.782
			C1396.925,1183.493,1440.295,1104.724,1402.18,1064.807z"/>
		<path style="fill:#869AC9;" d="M1431.228,1786.107c12.312-110.518,0.446-319.612-3.711-357.339
			c-4.157-37.727-41.622-90.795-60.493-129.517c-71.569,0.125-115.11-5.975-183.94,13.639
			c-18.305,31.445-47.875,64.828-59.352,105.155c-11.477,40.327-5.592,245.943-16.624,363.215
			C1191.531,1796.628,1405.117,1802.47,1431.228,1786.107z"/>
		<g>
			<g>
				<g>
					<rect x="1213.593" y="858.528" style="fill:#F2AE83;" width="107.945" height="128.396"/>
					<path style="fill:#C2713E;" d="M1321.538,858.528v39.486c-26.844,21.724-63.128,36.392-107.945,39.486v-78.973H1321.538z"/>
				</g>
			</g>
			<path style="fill:#F2AE83;" d="M1215.943,949.05c0,0-14.774,20.8-14.953,33.073c-0.129,8.85,61.031,88.892,71.266,88.892
				c10.234,0,72.252-86.982,73.745-92.63c2.106-7.967-2.449-16.496-8.986-21.514c-6.536-5.018-14.72-7.271-22.676-9.415
				L1215.943,949.05z"/>
		</g>
		<g>
			<path style="fill:#29253B;" d="M1179.254,936.286c0,0-30.698,120.879-37.947,128.471c-17.308,18.126-20.923,45.311-10.745,80.798
				c8.619,30.046,24.65,56.713,29.814,64.85c0,0,7.387,61.65-2.525,95.399s-44.206,108.757-44.206,108.757
				s97.405,3.077,99.948,3.485c3.602-145.004,8.436-344.83,0-487.397L1179.254,936.286z"/>
			<path style="fill:#29253B;" d="M1406.201,1064.757c-7.249-7.592-33.007-127.256-33.007-127.256l-51.656-9.073
				c-8.208,146.509-25.776,341.125,0,483.945c4.405-0.668,105.26-2.769,109.689-3.532c0,0-39.044-85.086-46.479-104.686
				c0,0-13.497-41.599,2.383-93.751c5.164-8.138,21.197-34.805,29.814-64.85C1427.125,1110.067,1423.51,1082.883,1406.201,1064.757z
				"/>
		</g>
		<path style="fill:#F2AE83;" d="M1099.737,1260.247c-7.504-5.525-22.028-25.651-24.256-38.426
			c-2.229-12.775,21.321-161.769,21.321-161.769s67.189,6.095,75.329,32.358c0,0-31.503,149.447-36.427,153.947
			C1130.781,1250.857,1107.669,1266.087,1099.737,1260.247z"/>
		<path style="fill:#29253B;" d="M1131.792,945.556c-11.86,6.444-27.797,23.013-29.107,32.146
			c-1.31,9.133-21.332,119.14-28.677,172.158c21.386,26.15,61.524,45.453,95.333,45.734c16.757-40.976,12.54-102.043,17.318-146.049
			l-1.61-113.452C1185.049,936.093,1146.383,937.629,1131.792,945.556z"/>
		<g>
			<g>
				<g>
					<path style="fill:#F2AE83;" d="M1317.422,865.09c4.625,1.295,9.696,0.319,13.983-1.797c4.287-2.115,7.904-5.288,11.31-8.569
						c8.99-8.659,17.35-19.57,16.712-31.8c-0.213-4.091-1.598-8.332-4.797-11.031c-3.809-3.215-9.613-3.604-14.318-1.801
						c-4.706,1.804-8.409,5.491-11.143,9.596L1317.422,865.09z"/>
					<path style="fill:#F2AE83;" d="M1204.999,865.09c-4.625,1.295-9.696,0.319-13.983-1.797c-4.287-2.115-7.904-5.288-11.31-8.569
						c-8.99-8.659-17.35-19.57-16.712-31.8c0.213-4.091,1.598-8.332,4.797-11.031c3.809-3.215,9.613-3.604,14.319-1.801
						c4.706,1.804,8.409,5.491,11.143,9.596L1204.999,865.09z"/>
				</g>
				<path style="fill:#F2AE83;" d="M1335.803,863.257c3.559-36.659,13.535-58.033,19.703-79.215
					c4.404-15.869,8.864-42.98-10.394-66.881c-19.029-24.832-66.789-38.937-110.515-27.067
					c-44.037,11.889-77.847,44.176-72.515,72.257c2.693,16.815,14.601,32.457,17.534,49.803c2.433,14.42-2.145,28.883,3.42,42.932
					c10.365,24.172,50.419,66.574,81.967,66.574C1290.784,921.661,1333.346,879.254,1335.803,863.257z"/>
			</g>
			<path style="fill:#1A1A1A;" d="M1286.585,796.168c3.982-0.854,8.125-1.019,12.183-0.527c4.059,0.488,8.039,1.642,11.695,3.426
				c3.638,1.803,7.007,4.193,9.545,7.374c-3.914-1.069-7.518-2.134-11.151-2.949c-3.616-0.835-7.208-1.468-10.825-1.915
				c-3.618-0.443-7.258-0.689-10.972-0.747C1283.336,800.748,1282.615,797.047,1286.585,796.168z"/>
			<path style="fill:#1A1A1A;" d="M1233.673,795.508c-4-0.775-8.145-0.858-12.192-0.286c-4.047,0.568-8.002,1.801-11.619,3.657
				c-3.599,1.875-6.916,4.33-9.385,7.561c3.891-1.147,7.47-2.282,11.085-3.169c3.598-0.906,7.175-1.611,10.782-2.129
				c3.608-0.514,7.242-0.833,10.953-0.964C1237.02,800.023,1237.661,796.308,1233.673,795.508z"/>
			<path style="fill:#FFFFFF;" d="M1269.374,840.673c-0.259,0.771-0.578,1.438-0.94,2.12c-0.373,0.662-0.755,1.394-1.436,1.749
				c-0.646,0.345-1.621,0.102-2.377-0.997c-0.377-0.539-0.646-1.269-0.752-2.105c-0.091-0.831-0.007-1.763,0.306-2.666
				c0.322-0.899,0.839-1.673,1.428-2.256c0.604-0.576,1.267-0.966,1.894-1.138c1.269-0.359,2.174,0.083,2.458,0.768
				c0.304,0.715,0.142,1.527,0.017,2.28C1269.825,839.188,1269.654,839.91,1269.374,840.673z"/>
			<path style="fill:#D67344;" d="M1261.362,843.273c-0.122-0.525-0.226-0.995-0.309-1.414c-0.074-0.42-0.144-0.787-0.196-1.157
				c-0.048-0.382-0.075-0.811-0.059-1.302c0.015-0.489,0.073-1.03,0.142-1.582c0.143-1.107,0.314-2.246,0.255-3.209
				c-0.05-0.965-0.322-1.758-0.87-2.242c-0.548-0.481-1.081-0.471-1.663-0.071c-0.579,0.404-1.229,1.205-1.893,2.378
				c-0.648,1.166-1.34,2.777-1.516,4.713c-0.091,0.959-0.01,1.985,0.205,2.938c0.21,0.963,0.564,1.869,0.973,2.731
				c0.411,0.863,0.889,1.629,1.386,2.333c0.5,0.705,1.033,1.333,1.541,1.88c1.028,1.103,1.999,1.956,2.808,2.592
				c1.634,1.26,2.614,1.718,3.152,0.846c0.504-0.818,0.456-1.824-0.426-3.282c-0.43-0.73-1.069-1.573-1.77-2.588
				c-0.346-0.508-0.706-1.059-1.022-1.657C1261.797,844.597,1261.529,843.947,1261.362,843.273z"/>
			<g>
				<path style="fill:#1A1A1A;" d="M1285.666,824.353c0-5.373,7.613-13.452,13.643-13.452h0c5.026,0.028,9.116,4.162,9.088,9.188
					l-0.029,4.364C1308.341,829.479,1285.667,829.726,1285.666,824.353z"/>
				<path style="fill:#1A1A1A;" d="M1297.175,811.211c0,0,6.586-1.387,12.3,2.583c5.714,3.97,9.698,1.785,9.698,1.785
					s-4.732,4.546-10.457,1.833c-5.726-2.713-8.492-1.531-8.492-1.531L1297.175,811.211z"/>
			</g>
			<g>
				<path style="fill:#1A1A1A;" d="M1234.937,824.353c0-5.373-7.613-13.452-13.643-13.452l0,0c-5.026,0.028-9.116,4.162-9.088,9.188
					l0.029,4.364C1212.263,829.479,1234.937,829.726,1234.937,824.353z"/>
				<path style="fill:#1A1A1A;" d="M1223.429,811.211c0,0-6.586-1.387-12.3,2.583c-5.714,3.97-9.698,1.785-9.698,1.785
					s4.732,4.546,10.457,1.833c5.726-2.713,8.492-1.531,8.492-1.531L1223.429,811.211z"/>
			</g>
			<path style="fill:#A3400F;" d="M1344.268,759.659c-0.144-2.252-0.346-3.662-0.618-3.994c-2.533-3.097-4.432,35.925-4.432,35.925
				c-41.203-4.084-147.533,1.858-147.533,1.858l-4.591-38.247c-7.123,8.362-3.085,91.794-3.085,91.794
				c-10.536-28.72-24.315-79.243-26.281-108.817c-1.111-16.714,12.281-28.066,23.047-30.11
				c6.479-27.459,29.533-37.293,57.441-45.431c32.53-9.486,69.445,0.711,94.433,23.186c24.988,22.474,38.594,47.502,32.177,80.081
				c-6.699,34.014-3.978,61.439-22.183,89.465C1342.644,855.369,1345.464,778.388,1344.268,759.659z"/>
			<path style="fill:#FFFFFF;" d="M1272.703,862.755c7.047-1.185,13.864-3.7,19.92-7.502c-5.224,9.717-10.543,19.042-25.394,20.63
				c-14.851,1.589-22.435-6.047-25.487-16.682C1251.428,863.362,1262.315,864.503,1272.703,862.755z"/>
		</g>
		<g>
			<path style="fill:#856861;" d="M1267.183,1035.69l-17.652-13.762l-177.738,156.278l34.266-2.736
				C1106.059,1175.47,1178.701,1166.166,1267.183,1035.69z"/>
			<polygon style="fill:#856861;" points="1338.466,1352.227 1301.406,1352.044 1071.793,1178.206 1109.364,1174.244 			"/>
			<polygon style="fill:#FFFFFF;" points="1194.907,1247.805 1109.937,1181.794 1086.42,1184.274 1179.656,1254.862 			"/>
			<path style="fill:#B28B81;" d="M1107.107,1174.481c0,0,81.534-91.649,161.86-152.718l194.371,218.78l-124.873,111.684
				L1107.107,1174.481z"/>
		</g>
		<g>
			<g>
				<g>
					<g>
						<g>
							<path style="fill:#F2AE83;" d="M1218.232,1240.777c-13.016,4.035-4.444,12.993-12.453,61.936
								c-0.307,1.872,46.517,7.961,69.34-10.66C1300.268,1271.534,1273.083,1223.775,1218.232,1240.777z"/>
						</g>
					</g>
					<g>
						<g>
							<path style="fill:#F2AE83;" d="M1219.55,1266.263l-33.251,17.308c-5.511,2.868-12.382,1.611-15.27-2.794l0,0
								c-2.888-4.405-0.741-10.357,4.769-13.225l41.06-20.369C1222.369,1244.314,1225.061,1263.394,1219.55,1266.263z"/>
							<path style="fill:#C2713E;" d="M1169.75,1276.455c0.109,0.735,0.326,1.469,0.703,2.194c2.064,3.973,6.953,5.852,11.752,4.604
								c6.562-1.706,14.206-6.749,22.161-10.688c7.036-3.484,13.482-7.614,20.295-11.36c-0.991,2.011-2.737,3.821-5.112,5.058
								l-33.251,17.308c-5.511,2.868-12.382,1.611-15.27-2.794v0C1170.151,1279.436,1169.744,1277.952,1169.75,1276.455z"/>
						</g>
						<g>
							<path style="fill:#F2AE83;" d="M1228.895,1282.121l-33.251,17.308c-5.511,2.869-12.382,1.611-15.27-2.794h0
								c-2.887-4.405-0.741-10.357,4.769-13.225l33.251-17.308c5.511-2.868,12.382-1.611,15.27,2.794l0,0
								C1236.552,1273.301,1234.406,1279.253,1228.895,1282.121z"/>
							<path style="fill:#C2713E;" d="M1179.095,1292.314c0.109,0.735,0.326,1.469,0.703,2.194
								c2.064,3.973,7.078,6.262,11.752,4.604c6.682-2.371,14.063-6.935,22.018-10.874c7.036-3.484,17.701-7.353,15.326-6.117
								l-33.251,17.308c-5.511,2.868-12.382,1.611-15.269-2.794l0,0C1179.495,1295.295,1179.089,1293.81,1179.095,1292.314z"/>
						</g>
						<g>
							<path style="fill:#F2AE83;" d="M1241.174,1295.361l-33.421,16.056c-5.539,2.661-12.381,1.617-15.205-2.32l0,0
								c-2.824-3.937-0.603-9.335,4.935-11.996l33.421-16.056c5.539-2.661,12.381-1.617,15.205,2.32l0,0
								C1248.933,1287.302,1246.712,1292.7,1241.174,1295.361z"/>
							<path style="fill:#C2713E;" d="M1191.328,1305.215c0.099,0.662,0.306,1.321,0.673,1.97c2.008,3.558,6.863,5.188,11.671,3.999
								c6.573-1.626,14.441-7.159,22.433-10.818c7.07-3.237,17.456-6.152,15.068-5.005l-33.421,16.056
								c-5.539,2.661-12.381,1.617-15.205-2.32h0C1191.688,1307.899,1191.302,1306.566,1191.328,1305.215z"/>
						</g>
						<path style="fill:#F2AE83;" d="M1249.216,1306.561l-25.87,13.776c-4.287,2.283-9.673,1.206-11.968-2.393v0
							c-2.295-3.599-0.665-8.412,3.623-10.695l25.87-13.776c4.287-2.283,29.563-5.347,31.859-1.747
							C1272.729,1291.725,1274.832,1294.031,1249.216,1306.561z"/>
					</g>
				</g>
				<path style="fill:#F2AE83;" d="M1260.349,1244.187c0,0-10.971-11.866-18.268-15.068c-7.297-3.202-36.092-2.739-47.385-4.593
					c-11.293-1.854-7.501,13.585,4.939,17.148c12.44,3.563,14.408,17.198,14.408,17.198L1260.349,1244.187z"/>
			</g>
		</g>
		<path style="fill:#F2AE83;" d="M1489.89,1189.463c-2.707-5.408-47.621-15.209-70.568-12.362
			c-22.947,2.847-174.634,68.4-174.634,68.4s-4.531,29.04,7.656,40.809c0,0,209.498-25.843,227.528-36.806
			C1516.074,1227.492,1492.596,1194.871,1489.89,1189.463z"/>
	</g>
	<g id="character_2_">
		<g>
			<g>
				<rect x="3150.021" y="833.527" style="fill:#D1785E;" width="108.966" height="129.61"/>
				<path style="fill:#84422E;" d="M3258.987,833.527v39.86c-27.098,21.929-63.724,36.737-108.966,39.86v-79.72H3258.987z"/>
			</g>
		</g>
		<path style="fill:#29253B;" d="M3390.191,959.328c13.403,6.919,37.075,21.908,40.166,31.745
			c3.091,9.837,91.612,270.018,97.255,286.879c11.318,33.814-97.608,40.825-106.048,18.978
			c-8.44-21.847-94.096-199.859-94.096-199.859l20.055-139.294C3347.524,957.777,3376.05,952.028,3390.191,959.328z"/>
		<path style="fill:#232033;" d="M3348.935,1371.446c28.564,175.341,3.849,498.473-3.556,546.027
			c-7.489,48.088-106.803-31.321-110.011-79.812c-1.153-17.429,3.427-34.774,3.461-52.236c0.03-15.427-6.227-30.269-6.98-45.736
			c-5.483-112.615-34.992-154.929-54.314-238.288l-25.139-129.956H3348.935z"/>
		<g>
			<path style="fill:#B3B3B3;" d="M3055.359,2380.449c21.129-10.097,39.753-20.76,44.99-31.617l2.335-96.042
				c0.817-7.141,2.365-15.862-4.613-16.826l-31.72-4.38c-6.22-0.859-12.029,3.043-13.675,9.206
				c-3.534,13.234-15.952,57.031-15.952,57.031c-20.641,20.353-41.283,40.706-61.924,61.059c-6.298,6.21-12.993,12.55-13.609,21.569
				C2961.171,2380.739,3055.359,2380.449,3055.359,2380.449z"/>
			<path style="fill:#1A1A1A;" d="M3102.067,2278.169c-1.998-0.305,5.166,51.322-18.36,55.167c-1.51,0.238-3.031,0.355-4.561,0.385
				l-1.862-21.803c0,0-33.426-15.433-58.472-13.483l-5.791,11.893l-71.206,39.186c-5.89,5.808-14.792,14.587-15.618,26.703
				c-0.117,1.706,0.642,3.643,2.032,5.709h179.959C3108.189,2381.925,3104.065,2278.474,3102.067,2278.169z"/>
		</g>
		<g>
			<path style="fill:#B3B3B3;" d="M3414.436,2380.105c0,0-4.319-15.202-9.104-21.472l-47.049-61.646c0,0-5.923-39.882-7.522-51.904
				c-0.745-5.598-5.362-9.789-10.866-9.882l-28.071-0.477c-6.175-0.105-11.259,4.958-11.344,11.297l-3.203,86.837
				c5.46,16.613,11.835,31.101,19.049,46.994L3414.436,2380.105z"/>
			<path style="fill:#1A1A1A;" d="M3410.015,2354.868l-31.829-41.704l-4.395-13.215c-21.563-5.094-52.347,3.837-52.347,3.837
				l-4.047,18.764c-1.327-0.233-2.637-0.541-3.923-0.953c-20.03-6.542-13.612-40.867-15.384-40.872
				c-1.772-0.004-22.766,101.199-22.766,101.199h145.136c0.071-0.548,0.13-1.097,0.162-1.65
				C3421.253,2369.595,3414.49,2360.733,3410.015,2354.868z"/>
		</g>
		<path style="fill:#232033;" d="M3063.105,1361.446c-29.189,175.341-14.757,498.473-7.19,546.027
			c7.653,48.088,109.14-31.32,112.419-79.812c1.178-17.429-3.502-34.774-3.536-52.236c-0.031-15.427,3.56-30.651,7.133-45.736
			c19.745-83.359,61.447-166.718,81.192-250.077v-118.166H3063.105z"/>
		<path style="fill:#232033;" d="M3037.694,2266.046c-1.237-69.056-0.061-138.126,1.114-207.183
			c0.59-34.695,1.181-69.39,1.771-104.086c0.832-48.881,3.69-98.396,21.687-144.507c5.37-13.76,91.859-49.274,102.531-34.846
			c0,0,7.202,68.019,11.712,98.823c2.968,20.272-1.063,40.788-5.08,60.912c-21.833,109.368-33.242,221.518-55.074,330.886H3037.694z
			"/>
		<path style="fill:#232033;" d="M3364.943,2271.614c1.21-69.056-1.673-133.694-2.823-202.75
			c-0.578-34.695-1.156-69.391-1.734-104.086c-0.814-48.881-3.611-98.396-21.222-144.507c-5.255-13.76-89.892-49.274-100.336-34.845
			c0,0-7.048,68.019-11.461,98.823c-2.904,20.272,1.04,40.788,4.971,60.912c21.365,109.368,31.542,217.374,52.906,326.742
			L3364.943,2271.614z"/>
		<path style="fill:#CFD7E9;" d="M3128.234,1434.382c-3.227,0-5.389-0.009-6.254-0.021c-16.227-0.203-64.518-14.228-71.515-25.151
			c17.987-92.984,7.041-149.022-3.546-203.233c-5.954-30.496-12.742-96.566-12.742-96.566
			c-6.505-12.206-14.014-103.439-8.475-141.064l119.514-50.242l55.347,16.568h11.164l55.349-16.568l119.514,50.242
			c5.54,37.625-1.969,128.858-8.474,141.064c0,0-8.384,67.653-16.01,98.425c-12.906,52.08-26.25,105.933-8.153,198.006l0.08,0.41
			c-3.594,5.426-30.468,19.348-43.577,21.416C3268.371,1434.306,3133.935,1434.382,3128.234,1434.382z"/>
		<g>
			<polygon style="fill:#869AC9;" points="3227.177,985.773 3248.055,965.524 3235.642,931.59 3206.146,928.972 3176.651,931.59 
				3164.238,965.524 3185.116,985.773 3152.395,1303.97 3206.146,1366.821 3259.898,1303.97 			"/>
			<g>
				<g>
					<polygon style="fill:#E7EBF4;" points="3263.604,890.729 3206.146,928.972 3227.177,933.271 3244.037,1020.523 
						3300.098,932.284 					"/>
				</g>
			</g>
			<g>
				<g>
					<polygon style="fill:#E7EBF4;" points="3148.689,890.729 3206.146,928.972 3185.116,933.271 3168.256,1020.523 
						3112.195,932.284 					"/>
				</g>
			</g>
		</g>
		<g>
			<g>
				<g>
					<path style="fill:#D1785E;" d="M2941.743,1575.217c0,0,0.098-45.609,0.429-51.888c0.332-6.279,18.244-25.763,22.545-26.787
						c6.091-1.45,33.127,1.841,33.127,1.841s10.55,22.324,14.428,36.399c3.878,14.075-24.242,39.006-24.242,39.006
						L2941.743,1575.217z"/>
					<path style="fill:#D1785E;" d="M2985.981,1534.928c9.432,10.735,16.215,17.453,15.304,24.268
						c-0.987,7.384-2.213,17.319-1.804,21.949c0.409,4.63-1.455,13.425,2.959,15.371c8.875,3.914,16.885-18.368,21.102-32.091
						c3.355-10.918,4.475-18.652,0.489-23.472s-20.197-20.261-20.197-20.261L2985.981,1534.928z"/>
				</g>
			</g>
			<g>
				<path style="fill:#1A1A1A;" d="M3016.673,1607.008l-38.871-2.118c0,0-25.69,314.933-25.69,336.872s87.115,20.922,87.115-2.203
					C3039.227,1916.436,3016.673,1607.008,3016.673,1607.008z"/>
				<path d="M3026.572,1932.33c-4.905,11.913-46.649,3.233-52.255-11.483c-10.511-28.03-3.869-52.805-3.509-80.474
					c0.061-4.7,8.766-0.965,10.167-6.572c-3.724-72.044,3.328-128.516-2.014-189.176c-0.327-3.716-2.153-7.066-3.541-10.414
					c-6.367,78.679-23.31,289.734-23.31,307.551c0,21.939,87.115,20.922,87.115-2.203c0-6.719-1.904-37.609-4.606-78.053
					C3034.621,1861.507,3035.093,1911.029,3026.572,1932.33z"/>
				<path style="fill:#1A1A1A;" d="M2984.304,1607.963c-5.805-5.778-14.868-2.952-20.083,3.654
					c-5.214,6.605-7.534,15.884-9.678,24.783c-6.515,27.035-14.198,185.502-10.065,194.06c3.632,7.52,21.535,0,21.535,0
					L2984.304,1607.963z"/>
				<path style="fill:#CCCCCC;" d="M2948.423,1822.853c-3.353,10.09,1.093,21.871,10.034,27.49c1.399,0.879,3.536,0.341,4.314-1.131
					c0.82-1.552,0.362-3.376-1.131-4.314c-0.484-0.304-0.953-0.625-1.41-0.967c0.601,0.448,0.007-0.005-0.124-0.115
					c-0.249-0.209-0.492-0.424-0.729-0.645c-0.356-0.332-0.7-0.677-1.031-1.034c-0.193-0.208-0.381-0.421-0.565-0.638
					c-0.104-0.123-0.666-0.84-0.194-0.215c-0.638-0.844-1.216-1.73-1.725-2.658c-0.275-0.501-0.52-1.014-0.762-1.531
					c-0.349-0.744,0.229,0.621-0.063-0.148c-0.101-0.267-0.205-0.532-0.3-0.802c-0.366-1.038-0.654-2.103-0.859-3.184
					c-0.046-0.24-0.083-0.481-0.125-0.722c-0.127-0.729,0.041,0.548-0.015-0.129c-0.047-0.568-0.1-1.132-0.115-1.702
					c-0.015-0.568-0.006-1.137,0.027-1.704c0.014-0.243,0.032-0.486,0.056-0.728c0.014-0.148,0.04-0.963,0.004-0.128
					c0.047-1.098,0.451-2.284,0.795-3.317c0.521-1.567-0.602-3.514-2.203-3.879
					C2950.563,1820.254,2948.98,1821.176,2948.423,1822.853L2948.423,1822.853z"/>
				<path style="fill:#CCCCCC;" d="M2980.619,1616.347v-56.936c0-5.629,4.58-10.209,10.209-10.209
					c5.629,0,10.209,4.58,10.209,10.209v56.936h9.811v-56.936c0-11.011-9.009-20.02-20.02-20.02h0
					c-11.011,0-20.02,9.009-20.02,20.02v56.936H2980.619z"/>
			</g>
			<g>
				<path style="fill:#D1785E;" d="M2984.367,1537.671c-2.304,17.525-3.556,37.638-3.374,55.028c0.024,2.293,0.126,4.744,1.55,6.428
					c1.654,1.955,4.607,2.331,7.323,2.561c4.888,0.414,9.631-0.558,12.808-6.939c1.337-2.684,0.799-13.188,0.672-16.599
					c-0.464-12.479,0.11-28.745,1.19-41.361L2984.367,1537.671z"/>
				<path style="fill:#D1785E;" d="M2967.925,1536.132c-2.304,17.525-3.37,35.065-3.188,52.455c0.024,2.293,0.126,4.744,1.55,6.427
					c1.654,1.955,4.607,2.331,7.323,2.561c4.888,0.414,7.519-0.094,12.385-2.293c4.68-2.115,1.222-17.834,1.095-21.244
					c-0.464-12.479-0.156-25.071,0.925-37.687L2967.925,1536.132z"/>
				<path style="fill:#D1785E;" d="M2953.143,1528.582c-2.16,17.519-3.254,35.06-3.271,52.458c-0.002,2.294,0.061,4.747,1.271,6.44
					c1.405,1.966,3.946,2.36,6.283,2.606c4.207,0.444,6.478-0.049,10.692-2.219c4.052-2.087,1.232-17.834,1.156-21.247
					c-0.275-12.488,0.117-25.083,1.174-37.698L2953.143,1528.582z"/>
				<path style="fill:#D1785E;" d="M2942.749,1524.268c-2.057,17.018-3.128,34.061-3.202,50.966c-0.01,2.229,0.04,4.612,1.153,6.26
					c1.293,1.913,3.615,2.425,5.801,2.545c10.755,0.593,11.093-19.461,11.035-22.777c-0.212-12.135,0.193-24.373,1.213-36.628
					L2942.749,1524.268z"/>
			</g>
		</g>
		<path style="fill:#29253B;" d="M3002.542,969.713c-11.894,9.276-32.39,28.38-33.611,38.618
			c-1.22,10.238-27.402,411.284-34.196,470.71c-4.22,57.274,82.364,37.275,89.039,21.456s44.789-407.225,44.789-407.225
			l-24.374-132.965C3044.188,960.306,3015.091,959.925,3002.542,969.713z"/>
		<path style="fill:#29253B;" d="M3400.797,966.357l-109.725-44.35l-33.688,260.127l-4.262,323.358
			c42.094,28.7,119.714,18.816,128.227,8.023s-5.384-83.216-7.186-97.133c-19.059-147.177,8.986-304.286,8.986-304.286
			S3407.279,1002.022,3400.797,966.357z"/>
		<path style="fill:#29253B;" d="M3159.171,1179.926l-37.95-257.92l-106.729,42.065c-6.482,35.665,14.652,148.023,14.652,148.023
			s37.134,154.54,13.327,299.534c-1.035,12.653-15.804,91.701-9.672,100.498c6.132,8.797,97.809,29.036,135.123,4.332
			L3159.171,1179.926z"/>
		<g>
			<g>
				<path style="fill:#D1785E;" d="M3516.31,1289.606c-6.647-2.251-80.052,1.19-97.268,20.025s-117.571,211.385-117.571,211.385
					s18.958,15.06,37.898,15.264c0,0,119.403-132.652,134.409-150.353C3488.785,1368.225,3522.957,1291.857,3516.31,1289.606z"/>
			</g>
			<path style="fill:#D1785E;" d="M3310.114,1504.516c0,0-36.461,15.803-31.816,23.783c4.645,7.98,64,29.487,64,29.487l1.055-30.905
				L3310.114,1504.516z"/>
			<path style="fill:#29253B;" d="M3302.699,1487.481l74.438,40.818c0,0,92.012-120.719,127.094-171.903
				c35.082-51.184,31.7-83.217,9.164-96.674c-26.069-15.566-74.94-8.543-98.24,22.839
				C3391.854,1313.944,3302.699,1487.481,3302.699,1487.481z"/>
		</g>
		<g>
			<g>
				<g>
					<g>
						<path style="fill:#D1785E;" d="M3265.608,818.139c5.094,1.427,10.678,0.351,15.399-1.979c4.721-2.33,8.705-5.824,12.456-9.437
							c9.901-9.536,19.108-21.553,18.406-35.022c-0.235-4.506-1.76-9.176-5.283-12.149c-4.195-3.54-10.586-3.97-15.769-1.983
							c-5.183,1.986-9.261,6.047-12.272,10.569L3265.608,818.139z"/>
						<path style="fill:#D1785E;" d="M3141.794,818.139c-5.094,1.427-10.678,0.351-15.399-1.979
							c-4.721-2.33-8.705-5.824-12.456-9.437c-9.901-9.536-19.108-21.553-18.406-35.022c0.235-4.506,1.76-9.176,5.283-12.149
							c4.195-3.54,10.587-3.97,15.769-1.983c5.183,1.986,9.261,6.047,12.272,10.569L3141.794,818.139z"/>
					</g>
					<path style="fill:#D1785E;" d="M3285.852,824.659c3.919-42.138,14.907-66.706,21.699-91.053
						c4.851-18.241,9.762-49.403-11.447-76.877c-20.958-28.543-73.556-44.756-121.713-31.112
						c-48.499,13.665-75.403,42.022-69.531,74.3c2.966,19.328,5.749,46.063,8.979,66.002c2.68,16.576-2.362,33.2,3.766,49.348
						c11.416,27.785,55.528,76.523,90.272,76.523C3236.272,891.791,3283.146,843.046,3285.852,824.659z"/>
				</g>
				<path style="fill:#F2F2F2;" d="M3212.691,791.248c-0.286,0.849-0.637,1.584-1.035,2.335c-0.411,0.729-0.832,1.535-1.582,1.927
					c-0.711,0.38-1.785,0.112-2.618-1.098c-0.415-0.594-0.711-1.397-0.829-2.318c-0.1-0.915-0.007-1.942,0.337-2.936
					c0.355-0.991,0.924-1.843,1.573-2.485c0.665-0.635,1.395-1.064,2.086-1.254c1.398-0.396,2.395,0.092,2.707,0.846
					c0.334,0.787,0.156,1.682,0.019,2.511C3213.188,789.613,3213,790.408,3212.691,791.248z"/>
				<path style="fill:#84422E;" d="M3203.868,794.111c-0.135-0.578-0.25-1.096-0.34-1.558c-0.082-0.463-0.159-0.866-0.215-1.275
					c-0.053-0.42-0.083-0.893-0.065-1.434c0.017-0.538,0.08-1.134,0.157-1.742c0.158-1.219,0.346-2.473,0.281-3.534
					c-0.055-1.063-0.355-1.936-0.958-2.469c-0.604-0.53-1.19-0.519-1.832-0.078c-0.637,0.444-1.354,1.327-2.084,2.619
					c-0.713,1.284-1.476,3.059-1.67,5.191c-0.101,1.056-0.011,2.187,0.226,3.236c0.231,1.061,0.621,2.058,1.071,3.008
					c0.452,0.951,0.979,1.794,1.526,2.569c0.551,0.777,1.137,1.468,1.697,2.07c1.132,1.215,2.202,2.154,3.093,2.855
					c1.8,1.388,2.879,1.893,3.471,0.932c0.555-0.901,0.502-2.009-0.469-3.614c-0.474-0.804-1.177-1.732-1.949-2.85
					c-0.381-0.559-0.777-1.167-1.125-1.825C3204.347,795.569,3204.052,794.854,3203.868,794.111z"/>
				<g>
					<path style="fill:#1A1A1A;" d="M3233.038,744.57c4.691-1.081,9.571-1.289,14.352-0.667c4.781,0.618,9.47,2.078,13.776,4.335
						c4.286,2.281,2.388,6.63-1.892,5.599c-4.26-1.057-8.49-1.858-12.751-2.423c-4.262-0.56-8.55-0.872-12.925-0.945
						C3229.211,750.365,3228.362,745.682,3233.038,744.57z"/>
					<path style="fill:#1A1A1A;" d="M3175.045,744.187c-4.712-0.981-9.595-1.085-14.362-0.362
						c-4.768,0.719-9.427,2.279-13.687,4.627c-4.24,2.372-2.256,6.679,2.003,5.557c4.238-1.147,8.452-2.038,12.701-2.694
						c4.25-0.65,8.531-1.053,12.903-1.219C3178.987,749.899,3179.742,745.199,3175.045,744.187z"/>
					<g>
						<g>
							<path style="fill:#1A1A1A;" d="M3170.559,780.081l-0.062-11.199c-0.03-5.389-4.463-9.775-9.853-9.745l0,0
								c-5.389,0.03-9.775,4.463-9.745,9.853l0.062,11.199C3150.99,785.578,3170.588,785.47,3170.559,780.081z"/>
						</g>
						<g>
							<path style="fill:#1A1A1A;" d="M3237.914,780.081l0.062-11.199c0.03-5.389,4.463-9.775,9.853-9.745l0,0
								c5.39,0.03,9.775,4.463,9.746,9.853l-0.062,11.199C3257.482,785.578,3237.884,785.47,3237.914,780.081z"/>
						</g>
					</g>
				</g>
				<path style="fill:#FFFFFF;" d="M3181.744,820.337c16.833-1.622,33.452-5.447,49.301-11.346
					c1.133,6.992-0.221,14.366-3.704,20.538c-9.401,2.597-22.582,4.044-28.895,4.044S3184.327,823.717,3181.744,820.337z"/>
			</g>
			<path style="fill:#2C1E1C;" d="M3338.947,731.566c1.405-2.651,2.299-5.691,2.51-9.071c0.076-1.224,0.04-2.404-0.065-3.552
				c1.687-2.022,2.635-4.67,2.256-7.381c-0.412-2.952-1.973-5.492-4.172-7.131c1.589-3.214,2.411-6.835,2.133-10.614
				c-0.333-4.512-2.075-8.463-4.699-11.627c0.638-1.494,0.909-3.145,0.676-4.819c-0.605-4.332-3.651-7.809-7.638-8.749
				c0.679-5.379-0.51-10.709-4.767-15.177c-0.826-0.867-1.707-1.642-2.631-2.34c1.885-2.703,2.569-6.336,1.284-9.416
				c-2.068-4.956-7.126-7.526-12.157-5.981c-0.481-1.079-1.049-2.125-1.703-3.126c1.424-1.247,2.847-2.494,4.271-3.741
				c3.74-3.276,5.523-9.031,2.109-13.313c-2.98-3.738-9.297-5.627-13.314-2.109c-2.308,2.022-4.616,4.044-6.925,6.065
				c-0.101-0.372-0.218-0.743-0.372-1.112c-0.17-0.407-0.375-0.798-0.595-1.182c0.424-0.645,0.863-1.285,1.336-1.923
				c2.964-4,2.76-10.291-1.506-13.398c-4.052-2.951-10.22-2.784-13.398,1.506c-0.161,0.218-0.302,0.45-0.462,0.67
				c-0.081-0.381-0.139-0.765-0.236-1.143c-0.382-1.488-1.277-2.763-2.458-3.763c0.009-2.831-1.102-5.651-3.48-7.383
				c-4.142-3.017-10.107-2.701-13.398,1.506c-0.348,0.445-0.697,0.89-1.045,1.336c-0.593-1.849-1.67-3.531-3.089-4.665
				c-4.243-3.391-9.486-2.243-13.098,1.22c-0.6-3.997-3.852-7.45-7.949-8.099c-2.525-0.4-4.957,0.296-6.898,1.688
				c-0.306-4.187-4.037-7.98-8.097-8.622c-5.435-0.861-9.683,2.906-10.905,7.923c-0.332,1.361-0.664,2.722-0.995,4.083
				c-0.096-0.333-0.182-0.669-0.282-1.002c-1.449-4.777-7.757-7.507-12.277-5.573c-4.069,1.741-6.187,5.388-6.022,9.435
				c-0.315-0.696-0.63-1.392-0.945-2.088c-2.122-4.685-7.238-7.47-12.278-5.572c-1.421,0.535-2.701,1.468-3.729,2.64
				c-3.122-3.392-8.895-4.271-12.605-1.313c-4.08,3.253-5.2,8.954-2.108,13.313c0.327,0.462,0.655,0.924,0.982,1.385
				c-0.927,0.586-1.745,1.314-2.366,2.189c-0.118,0.166-0.211,0.336-0.317,0.503c-0.317-4.406-3.162-8.635-7.925-9.182
				c-4.808-0.552-10.477,2.616-10.905,7.923c-0.095,1.183-0.099,2.362-0.05,3.534c-1.779-1.31-3.977-2.01-6.318-1.674
				c-4.963,0.711-9.257,5.156-8.54,10.432c0.302,2.224,0.829,4.324,1.475,6.375c-1.011,1.264-1.756,2.785-2.034,4.585
				c-0.235,1.516-0.06,3.101,0.42,4.598c-2.803-0.509-5.607-1.017-8.41-1.526c-8.474-1.537-12.581,7.189-10.405,13.613
				c-4.993-0.591-10.325,3.037-10.922,8.369c-0.123,1.093-0.042,2.175,0.147,3.227c-2.637,0.762-4.927,2.577-6.263,4.952
				c-3.912-2.715-9.985-2.124-12.875,1.843c-3.06,4.201-2.644,10.034,1.506,13.398c1.348,1.093,2.743,2.085,4.178,2.993
				c-3.458,0.391-6.799,2.617-8.056,5.943c-1.099,2.906-0.907,5.893,0.294,8.41c-2.152,1.64-3.752,4.134-4.146,6.684
				c-0.898,5.816,3.012,10.079,8.135,11.482c0.425,0.116,0.835,0.277,1.257,0.404c-2.034,6.662-1.348,13.582,1.615,19.333
				c-2.516,1.759-4.17,4.741-3.704,8.825c1.682,14.732,15.566,26.558,30.162,24.158c-0.942,4.781,0.55,9.709,5.337,11.862
				c4.404,1.98,11.346,0.058,12.897-5.158c1.9-6.386,2.912-12.729,2.726-19.294c5.806-3.603,10.049-9.236,10.425-17.156
				c0.29-6.095-1.972-10.907-5.546-14.671c2.417-4.537,3.163-10.027,2.067-15.346c3.897-2.995,6.72-7.196,7.303-12.772
				c0.224-2.142,0.041-4.276-0.456-6.316c4.135-2.908,7.405-7.038,9.322-11.777c10.207,2.226,20.994-2.392,25.585-11.812
				c7.67,1.847,15.429,1.13,21.409-2.947c8.105,4.784,19.07,3.017,28.716-0.985c5.612,5.008,13.446,7.418,20.063,5.9
				c2.664,6.25,8.908,10.248,16.166,12.253c0.314,10.834,8.189,19.815,18.842,23.182c0.065,5.347,2.113,10.505,5.891,14.55
				c-4.931,3.234-8.165,8.639-8.291,15.274c-0.096,5.057,1.74,9.542,4.701,13.168c-2.826,6.649-2.017,14.644,3.163,20.436
				c0.271,8.935,7.9,15.508,15.515,16.322c2.513,3.091,7.134,4.596,10.839,3.01c4.579-1.959,6.927-6.592,5.799-11.332
				c9.756-3.225,18.842-9.621,19.694-20.901c0.472-0.408,0.895-0.854,1.239-1.337c1.466-2.063,2.451-4.658,2.088-7.257
				C3341.354,735.517,3340.511,733.124,3338.947,731.566z"/>
		</g>
	</g>
	<g id="character_1_">
		<g>
			<path style="fill:#CFD7E9;" d="M2763.978,1075.241c-10.563-11.062-27.48-126.177-27.48-126.177h-101.093h-101.093
				c0,0-16.918,115.115-27.48,126.177c-37.777,39.563,7.091,93.36,21.506,115.929c12.049,39.43-21.298,101.879,0.842,128.916
				c16.157,19.732,12.189,49.758,12.189,49.758c32.807,5.655,63.241,8.314,94.037,9.224c30.795-0.91,61.229-3.569,94.037-9.224
				c0,0,0.159-33.961,15.175-53.693c15.127-19.878-11.104-65.224-0.261-100.707
				C2758.77,1192.874,2801.756,1114.804,2763.978,1075.241z"/>
		</g>
		<path style="fill:#5F2C29;" d="M2531.962,931.259l179.404-3.016l16.114-129.603c0,0-15.893-76.546-89.173-79.141
			s-94.041,53.44-96.117,79.141C2540.114,824.341,2531.962,931.259,2531.962,931.259z"/>
		<path style="fill:#F0B297;" d="M2390.382,1231.438c-5.258-7.594-12.398-31.134-10.377-43.827
			c2.021-12.693,72.032-144.793,72.032-144.793s61.026,27.33,60.208,54.569c0,0-69.407,133.942-75.47,136.577
			S2395.939,1239.465,2390.382,1231.438z"/>
		<path style="fill:#CFD7E9;" d="M2518.456,951.364c-12.749,4.055-30.244,8.007-34.41,16.147
			c-4.167,8.141-67.452,124.909-91.395,172.248c11.636,31.394,52.178,42.322,83.783,53.463
			c22.538-34.777,44.585-91.627,63.222-131.345l21.771-111.148C2561.427,950.729,2531.908,947.086,2518.456,951.364z"/>
		<path style="fill:#F0B297;" d="M2845.305,1248.231c6.023-7.002,15.586-29.667,14.904-42.501
			c-0.682-12.835-56.495-151.532-56.495-151.532s-63.55,20.798-65.585,47.974c0,0,55.019,140.466,60.773,143.721
			C2804.657,1249.146,2838.939,1255.632,2845.305,1248.231z"/>
		<path style="fill:#CFD7E9;" d="M2744.147,951.289c12.255,5.366,32.316,16.135,35.608,24.667
			c3.292,8.532,61.626,134.672,80.487,184.256c-14.855,30.005-63.925,33.239-96.521,41.014c0,0-34.758-95.788-49.14-137.236
			l-10.028-112.816C2704.554,951.173,2731.217,945.627,2744.147,951.289z"/>
		<g>
			<path style="fill:#F0B59C;" d="M2485.567,2090.137c0.878,69.828,1.685,139.89,1.302,156.432l38.446,1.715
				c7.171-47.461,16.503-103.986,25.952-158.147H2485.567z"/>
			<g>
				<path style="fill:#5D2A46;" d="M2537.843,2249.716c-0.249-21.067-13.656-25.454-13.656-25.454l-44.1,17.302
					c0,0-72.658,146.898-61.705,150.189l78.49,2.102c22.613,0.498,16.755-35.426,25.503-54.47l-0.412,54.968h9.843l4.589-76.567
					c0.748-2.69,1.267-4.984,1.472-6.693C2538.95,2302.055,2538.175,2277.87,2537.843,2249.716z"/>
				<path style="fill:#F0B59C;" d="M2487.274,2220.092c-3.852,10.79-20.345,52.484-24.589,65.732
					c-3.289,10.269-10.719,33.292-15.574,48.327c-2.285,7.076,2.836,14.365,10.268,14.625l46.518,0.98l24.509-116.377
					c0.421-3.437,0.675-21.138-6.737-25.553C2514.258,2203.411,2491.127,2209.302,2487.274,2220.092z"/>
			</g>
		</g>
		<g>
			<path style="fill:#F0B59C;" d="M2710.217,2115.164h-51.895c2.842,53.762,5.292,107.378,6.388,124.461l38.595,1.715
				C2699.361,2199.34,2703.246,2156.485,2710.217,2115.164z"/>
			<g>
				<path style="fill:#5D2A46;" d="M2709.219,2226.176c0,0,26.809,103.526,30.554,120.567c3.745,17.041-2.366,41.219-8.257,47.61
					h-75.141c-12.129-3.55,8.08-161.977,8.08-161.977L2709.219,2226.176z"/>
				<path style="fill:#F0B59C;" d="M2663.977,2209.219c0,11.637-1.606,56.603-1.119,70.891c0.584,17.157,2.161,67.334,2.161,67.334
					s43.968,3.08,49.378-2.17c15.367-14.911,8.5-46.153,8.5-46.153l-13.044-75.571c-0.807-3.707-6.873-22.797-15.861-27.559
					S2663.977,2197.583,2663.977,2209.219z"/>
			</g>
		</g>
		<g>
			<g>
				<rect x="2577.064" y="870.791" style="fill:#F0B297;" width="106.988" height="127.258"/>
				<path style="fill:#D1785E;" d="M2684.052,870.791v39.136c-26.606,21.531-62.568,36.07-106.988,39.136v-78.273H2684.052z"/>
			</g>
		</g>
		<g>
			<path style="fill:#E7EBF4;" d="M2630.468,998.049l48.186-36.525l6.013-31.068c0,0,10.604,13.544,10.966,21.314s0,82.726,0,82.726
				s-29.261-27.455-35.041-32.151C2654.811,997.649,2630.468,998.049,2630.468,998.049z"/>
			<path style="fill:#E7EBF4;" d="M2630.648,998.049l-48.186-36.525l-6.013-31.068c0,0-10.604,13.544-10.966,21.314
				s0,82.726,0,82.726s29.261-27.455,35.042-32.151C2606.304,997.649,2630.648,998.049,2630.648,998.049z"/>
		</g>
		<path style="fill:#29253B;" d="M2529.178,1320.085c0,0-58.178,155.17-57.667,185.346c0.511,30.175-3.526,269.465-3.526,269.465
			s86.15,71.536,119.709,21.601c18.077-26.899,18.299-254.102,18.299-254.102l53.243-24.064l-10.362-191.311L2529.178,1320.085z"/>
		<path style="fill:#29253B;" d="M2465.946,2197.999c0,0,81.117,26.01,87.257,0s18.864-270.749,26.234-324.36
			c7.37-53.611,20.043-122.129,15.708-146.668c-4.335-24.539-121.507-19.026-124.334,14.45
			c-2.827,33.476-13.488,91.758-13.071,124.27C2458.159,1898.203,2465.946,2197.999,2465.946,2197.999z"/>
		<path style="fill:#29253B;" d="M2747.137,1320.404c0,0,43.099,177.469,39.424,207.645
			c-3.674,30.175-25.912,247.166-25.912,247.166s-93.65,71.537-121.973,21.601c-15.257-26.899,10.198-288.3,10.198-288.3
			l-41.186,0.318l19.027-181.494L2747.137,1320.404z"/>
		<path style="fill:#29253B;" d="M2718.332,2198.317c0,0-83.844,26.01-87.257,0c-3.414-26.01,9.521-270.749,7.771-324.36
			c-1.75-53.611-7.24-122.129-0.332-146.668c6.908-24.539,123.502-19.026,122.819,14.45c-0.683,33.475,3.869,91.758,0.043,124.27
			C2757.549,1898.522,2718.332,2198.317,2718.332,2198.317z"/>
		<g>
			<path style="fill:#F0B297;" d="M2427.918,1193.234c5.219-0.66,30.529,26.076,39.575,44.042
				c9.045,17.966,27.179,160.017,27.179,160.017s-5.357,20.92-15.696,26.799c0,0-99.149-186.782-98.2-220.398
				C2381.294,1185.345,2422.699,1193.894,2427.918,1193.234z"/>
			<path style="fill:#F0B297;" d="M2490.576,1364.438l20.486,18.784c0,0,9.648,2.66,23.118,5.408
				c13.47,2.748,4.535,18.174-21.802,13.082l6.422,14.555c0,0-13.697,43.197-26.749,39.873c0,0-20.178-38.719-24.07-60.755
				C2464.09,1373.351,2484.534,1358.897,2490.576,1364.438z"/>
		</g>
		<g>
			<path style="fill:#F0B297;" d="M2817.033,1193.234c-5.219-0.66-25.589,25.221-34.635,43.187s-32.119,160.872-32.119,160.872
				s5.357,20.92,15.696,26.799c0,0,97.408-147.603,92.754-206.066C2857.272,1199.728,2822.252,1193.894,2817.033,1193.234z"/>
			<path style="fill:#F0B297;" d="M2754.375,1364.438l-20.486,18.784c0,0-9.648,2.66-23.118,5.408
				c-13.47,2.748-4.535,18.174,21.802,13.082l-5.175,17.356c0,0,29.082,40.201,42.134,36.876c0,0,3.546-38.524,7.437-60.559
				C2780.861,1373.351,2760.418,1358.897,2754.375,1364.438z"/>
		</g>
		<path style="fill:#7A3440;" d="M2750.28,1316.754c0,0-144.25,10.115-225.652,0l-7.707,28.9c0,0,110.86,37.088,239.186,0
			L2750.28,1316.754z"/>
		<path style="fill:#C69C6D;" d="M2651.875,1364.01h-29.856c-6.159,0-11.199-5.039-11.199-11.199v-24.859
			c0-6.159,5.04-11.199,11.199-11.199h29.856c6.159,0,11.199,5.039,11.199,11.199v24.859
			C2663.074,1358.971,2658.034,1364.01,2651.875,1364.01z"/>
		<path style="fill:#7F3B37;" d="M2727.56,748.786c-0.328,7.588-0.413,15.203,0.226,22.778c0.313,3.71,0.79,7.414,1.484,11.073
			c0.599,3.158,1.194,6.479,2.604,9.394c2.303,4.762,6.627,8.28,10.283,11.962c1.804,1.817,3.577,3.71,4.861,5.941
			c1.438,2.498,2.008,5.502,2.474,8.317c1.054,6.378,0.618,13.023-1.086,19.246c-1.763,6.437-4.99,11.994-9.024,17.258
			c-3.903,5.092-7.861,10.249-8.723,16.803c-0.953,7.243,1.588,14.34,4.549,20.83c3.109,6.816,7.245,13.878,7.394,21.573
			c0.115,5.957-2.287,12.322-8.017,14.872c-2.36,1.051-0.316,4.518,2.03,3.473c5.155-2.295,8.353-7.438,9.476-12.824
			c1.335-6.402-0.198-12.758-2.653-18.696c-2.785-6.737-6.604-13.1-8.26-20.259c-0.839-3.627-1.044-7.428-0.011-11.038
			c0.904-3.163,2.686-5.972,4.596-8.618c3.914-5.419,7.987-10.377,10.57-16.622c2.538-6.134,3.808-12.824,3.727-19.463
			c-0.072-5.938-0.855-12.878-4.225-17.936c-3.027-4.544-7.413-7.911-11.035-11.938c-1.939-2.156-3.508-4.458-4.27-7.28
			c-1.117-4.139-1.892-8.377-2.381-12.634c-0.999-8.699-0.945-17.477-0.567-26.213
			C2731.694,746.198,2727.671,746.203,2727.56,748.786L2727.56,748.786z"/>
		<g>
			<g>
				<g>
					<path style="fill:#F0B297;" d="M2689.876,856.092c4.729,1.324,9.912,0.326,14.295-1.837c4.383-2.162,8.081-5.406,11.563-8.76
						c9.191-8.853,17.738-20.008,17.086-32.51c-0.218-4.182-1.634-8.518-4.904-11.278c-3.895-3.286-9.828-3.685-14.639-1.841
						s-8.597,5.613-11.392,9.811L2689.876,856.092z"/>
					<path style="fill:#F0B297;" d="M2574.941,856.092c-4.729,1.324-9.912,0.326-14.295-1.837c-4.383-2.162-8.081-5.406-11.563-8.76
						c-9.191-8.853-17.738-20.008-17.086-32.51c0.218-4.182,1.633-8.518,4.904-11.278c3.895-3.286,9.827-3.685,14.639-1.841
						c4.811,1.844,8.597,5.613,11.392,9.811L2574.941,856.092z"/>
				</g>
				<path style="fill:#F0B297;" d="M2708.668,862.145c3.638-39.117,13.838-61.923,20.143-84.524
					c4.503-16.933,9.062-40.388-10.626-65.891c-19.455-26.497-68.281-41.547-112.985-28.881
					c-45.021,12.685-79.587,41.664-74.136,71.627c2.753,17.942,14.927,34.633,17.925,53.141c2.488,15.387-2.193,30.819,3.496,45.81
					c10.597,25.793,51.546,71.036,83.799,71.036C2662.643,924.463,2706.156,879.213,2708.668,862.145z"/>
			</g>
			<path style="fill:#7F3B37;" d="M2658.371,790.286c3.967-0.914,8.094-1.09,12.137-0.564c4.043,0.522,8.009,1.757,11.65,3.666
				c3.625,1.929,6.981,4.486,9.508,7.89c-3.899-1.144-7.489-2.283-11.108-3.155c-3.603-0.893-7.18-1.571-10.784-2.049
				c-3.604-0.474-7.231-0.737-10.93-0.799C2655.134,795.187,2654.416,791.227,2658.371,790.286z"/>
			<path style="fill:#7F3B37;" d="M2605.661,789.58c-3.984-0.83-8.114-0.918-12.146-0.306c-4.032,0.608-7.972,1.927-11.575,3.913
				c-3.585,2.006-6.89,4.633-9.349,8.09c3.876-1.227,7.442-2.442,11.043-3.391c3.584-0.97,7.147-1.724,10.741-2.278
				c3.594-0.55,7.214-0.891,10.912-1.031C2608.995,794.411,2609.634,790.436,2605.661,789.58z"/>
			<g>
				<path style="fill:#F2F2F2;" d="M2640.754,831.13c-0.265,0.788-0.591,1.47-0.961,2.168c-0.382,0.677-0.772,1.425-1.468,1.788
					c-0.66,0.353-1.657,0.104-2.43-1.019c-0.385-0.551-0.66-1.297-0.769-2.152c-0.093-0.849-0.007-1.802,0.313-2.726
					c0.33-0.92,0.858-1.711,1.46-2.307c0.618-0.589,1.295-0.988,1.937-1.164c1.298-0.367,2.223,0.085,2.512,0.785
					c0.311,0.731,0.145,1.561,0.018,2.331C2641.215,829.612,2641.041,830.35,2640.754,831.13z"/>
				<path style="fill:#D1785E;" d="M2632.563,833.787c-0.125-0.537-0.232-1.017-0.316-1.446c-0.076-0.43-0.147-0.804-0.2-1.183
					c-0.049-0.39-0.077-0.829-0.06-1.331c0.015-0.5,0.074-1.053,0.146-1.617c0.146-1.132,0.321-2.296,0.261-3.281
					c-0.052-0.987-0.33-1.798-0.89-2.292c-0.56-0.492-1.105-0.482-1.701-0.073c-0.592,0.413-1.256,1.232-1.935,2.431
					c-0.662,1.192-1.37,2.839-1.55,4.818c-0.093,0.98-0.01,2.03,0.209,3.004c0.214,0.985,0.576,1.911,0.994,2.792
					c0.42,0.883,0.909,1.666,1.417,2.385c0.511,0.721,1.056,1.362,1.575,1.922c1.051,1.128,2.044,1.999,2.871,2.65
					c1.671,1.288,2.672,1.757,3.222,0.865c0.515-0.836,0.466-1.865-0.436-3.355c-0.439-0.746-1.093-1.608-1.809-2.646
					c-0.354-0.519-0.721-1.083-1.045-1.694C2633.008,835.141,2632.734,834.477,2632.563,833.787z"/>
			</g>
			<g>
				<path style="fill:#1A1A1A;" d="M2603.998,824.695l-0.058-10.643c-0.028-5.122-4.242-9.289-9.364-9.261l0,0
					c-5.122,0.028-9.289,4.242-9.261,9.363l0.058,10.643C2585.401,829.919,2604.026,829.817,2603.998,824.695z"/>
				<path style="fill:#1A1A1A;" d="M2596.75,805.107c0,0-6.712-1.413-12.534,2.632c-5.822,4.045-9.883,1.818-9.883,1.818
					s4.822,4.633,10.657,1.868c5.835-2.765,8.654-1.56,8.654-1.56L2596.75,805.107z"/>
			</g>
			<g>
				<path style="fill:#1A1A1A;" d="M2661.813,824.695l0.059-10.643c0.028-5.122,4.242-9.289,9.364-9.261l0,0
					c5.122,0.028,9.289,4.242,9.261,9.363l-0.058,10.643C2680.409,829.919,2661.784,829.817,2661.813,824.695z"/>
				<path style="fill:#1A1A1A;" d="M2669.06,805.107c0,0,6.712-1.413,12.534,2.632c5.823,4.045,9.883,1.818,9.883,1.818
					s-4.822,4.633-10.657,1.868c-5.835-2.765-8.654-1.56-8.654-1.56L2669.06,805.107z"/>
			</g>
			<path style="fill:#7F3B37;" d="M2732.411,927.02c-0.163,1.537-0.083,3.106,0.261,4.547c-14.849-0.08-29.75,0.499-44.64,1.738
				c0.019-0.249,0.055-0.497,0.11-0.742c0.896-4.021,4.351-7.055,6.92-10.407c4.194-5.471,6.227-12.434,5.538-18.971
				c-0.867-8.231-5.819-15.836-4.338-24.145c2.346-13.164,17.674-23.008,15.046-35.775c-1.392-6.763-8.344-11.085-9.619-17.878
				c-2.013-10.72,8.227-19.642,11.155-30.502c1.726-6.401-0.099-12.673-3.534-18.142c-10.641,0.085-33.349,1.343-33.184-0.301
				c1.123-11.15,0.496-28.927-3.964-38.841c-4.735,11.187-7.114,38.835-8.669,39.77c-0.78,0.469-1.719,0.489-2.604,0.493
				c-29.353,0.162-72.397,0.323-101.75,0.485c-0.234,0.752-0.416,1.51-0.539,2.269c-1.415,8.683,2.091,16.956,4.613,25.117
				c2.522,8.161,3.901,17.742-1.111,25.257c-2.697,4.043-6.898,6.902-10.081,10.603c-7.529,8.755-8.156,22.321-1.422,30.725
				c3.112,3.883,7.705,7.017,8.557,12.004c1.101,6.445-4.482,12.371-7.17,18.617c-3.025,7.029-2.211,15.3,2.078,21.131
				c1.614,2.194,3.716,4.127,4.525,6.755c0.246,0.799,0.355,1.623,0.345,2.454c-23.689,0-47.358,0-71.048,0
				c0.623-2.185,1.639-4.366,2.796-6.227c3.357-5.401,7.515-11.989,4.58-17.195c-1.176-2.085-3.316-3.438-4.712-5.378
				c-4.548-6.318,0.287-15.57,5.79-21.845c5.503-6.276,12.278-13.097,11.711-21.037c-0.465-6.509-5.784-11.163-9.215-16.549
				c-6.751-10.597-5.9-25.728,2.055-36.545c5.976-8.126,15.58-14.125,18.619-23.563c11.717-36.401,3.862-63.953,41.364-88.13
				c40.758-26.275,66.099-42.736,110.279-20.932c28.124,13.88,68.681,40.141,66.619,70.473c-0.854,12.569,0.435,24.998,2.376,37.256
				c2.349,14.834,18.338,25.707,15.848,40.854c-2.306,14.031-19.329,22.523-23.406,36.277c-4.944,16.676,11.182,32.738,6.35,49.438
				c-1.449,5.007-4.688,9.491-6.087,14.509C2732.644,925.443,2732.495,926.227,2732.411,927.02z"/>
			<path style="fill:#FFFFFF;" d="M2643.827,856.163c7.047-1.185,13.864-3.7,19.92-7.502c-5.224,9.717-10.543,19.042-25.394,20.63
				s-22.435-6.047-25.487-16.682C2622.552,856.77,2633.439,857.91,2643.827,856.163z"/>
		</g>
	</g>
	<g id="character">
		<g>
			<g>
				<rect x="577.234" y="830.576" style="fill:#FFA58F;" width="108.966" height="129.61"/>
				<path style="fill:#B3624B;" d="M686.2,830.576v39.86c-27.098,21.929-63.724,36.737-108.966,39.86v-79.719H686.2z"/>
			</g>
		</g>
		<path style="fill:#29253B;" d="M837.649,968.307c11.894,9.276,32.39,28.38,33.611,38.618
			c1.22,10.238,40.159,282.294,42.591,299.907c4.877,35.322-107.728-0.937-111.988-23.968c-4.259-23.03-51.3-190.771-51.3-190.771
			l45.44-133.192C796.003,958.901,825.099,958.52,837.649,968.307z"/>
		<path style="fill:#232033;" d="M776.147,1368.496c28.564,175.341,3.849,498.473-3.556,546.027
			c-7.489,48.088-106.803-31.32-110.011-79.812c-1.153-17.429,3.427-34.774,3.461-52.236c0.03-15.427-6.726-30.253-6.98-45.736
			c-2.219-135.171-28.858-154.149-48.18-237.507l-31.273-130.736H776.147z"/>
		<g>
			<path style="fill:#B3B3B3;" d="M482.571,2377.499c21.129-10.097,39.753-20.761,44.99-31.618l2.335-96.042
				c0.817-7.141,2.365-15.862-4.613-16.826l-31.721-4.38c-6.22-0.859-12.029,3.043-13.674,9.206
				c-3.534,13.235-15.952,57.031-15.952,57.031c-20.641,20.353-41.283,40.706-61.924,61.059c-6.298,6.21-12.993,12.55-13.609,21.57
				C388.383,2377.788,482.571,2377.499,482.571,2377.499z"/>
			<path style="fill:#1A1A1A;" d="M529.279,2275.219c-1.998-0.305,5.166,51.322-18.36,55.167c-1.51,0.239-3.031,0.355-4.561,0.385
				l-1.862-21.803c0,0-33.426-15.433-58.472-13.483l-5.79,11.893l-71.206,39.185c-5.891,5.808-14.792,14.587-15.618,26.703
				c-0.117,1.706,0.642,3.643,2.033,5.709h179.959C535.401,2378.975,531.278,2275.524,529.279,2275.219z"/>
		</g>
		<g>
			<path style="fill:#B3B3B3;" d="M841.648,2377.155c0,0-4.319-15.202-9.104-21.471l-47.049-61.646c0,0-5.923-39.882-7.522-51.904
				c-0.745-5.599-5.362-9.789-10.866-9.882l-28.071-0.477c-6.175-0.105-11.259,4.959-11.344,11.298l-3.203,86.837
				c5.46,16.613,11.835,31.101,19.049,46.994L841.648,2377.155z"/>
			<path style="fill:#1A1A1A;" d="M837.227,2351.918l-31.829-41.704L801.003,2297c-21.563-5.094-52.347,3.837-52.347,3.837
				l-4.047,18.765c-1.327-0.233-2.637-0.541-3.923-0.953c-20.03-6.542-13.612-40.868-15.384-40.872
				c-1.772-0.005-22.766,101.199-22.766,101.199h145.136c0.071-0.548,0.13-1.097,0.162-1.65
				C848.465,2366.645,841.702,2357.782,837.227,2351.918z"/>
		</g>
		<path style="fill:#232033;" d="M490.317,1358.495c-29.189,175.341-14.757,498.473-7.19,546.027
			c7.653,48.088,109.14-31.32,112.419-79.812c1.178-17.429-3.502-34.774-3.536-52.236c-0.031-15.427,3.56-30.651,7.133-45.736
			c19.745-83.359,61.447-166.718,81.192-250.077v-118.166H490.317z"/>
		<path style="fill:#232033;" d="M464.906,2263.096c-1.237-69.056-0.061-138.126,1.114-207.183
			c0.591-34.695,1.181-69.391,1.772-104.086c0.832-48.881,3.69-98.396,21.687-144.507c5.37-13.76,91.859-49.274,102.532-34.846
			c0,0,7.202,68.019,11.712,98.823c2.968,20.272-1.063,40.788-5.08,60.912c-21.833,109.368-33.242,221.518-55.074,330.886H464.906z"
			/>
		<path style="fill:#232033;" d="M792.156,2268.664c1.21-69.056-1.673-133.694-2.823-202.75
			c-0.578-34.695-1.156-69.39-1.734-104.086c-0.814-48.881-3.611-98.396-21.222-144.507c-5.255-13.76-89.892-49.274-100.336-34.845
			c0,0-7.048,68.019-11.461,98.823c-2.904,20.272,1.04,40.788,4.972,60.912c21.365,109.368,31.542,217.374,52.906,326.742
			L792.156,2268.664z"/>
		<path style="fill:#CFD7E9;" d="M555.446,1431.432c-3.226,0-5.389-0.009-6.254-0.02c-16.227-0.203-64.518-14.228-71.515-25.151
			c17.987-92.984,7.041-149.022-3.546-203.233c-5.953-30.496-12.742-96.566-12.742-96.566
			c-6.505-12.206-14.014-103.439-8.475-141.064l119.514-50.242l55.347,16.568h11.164l55.349-16.568l119.514,50.242
			c5.54,37.625-1.97,128.858-8.474,141.064c0,0-8.384,67.653-16.01,98.425c-12.906,52.08-26.25,105.932-8.153,198.006l0.08,0.41
			c-3.594,5.426-30.467,19.349-43.577,21.416C695.583,1431.356,561.147,1431.432,555.446,1431.432z"/>
		<g>
			<polygon style="fill:#869AC9;" points="654.389,982.823 675.267,962.574 662.854,928.64 633.359,926.022 603.863,928.64 
				591.45,962.574 612.328,982.823 579.607,1301.02 633.359,1363.871 687.11,1301.02 			"/>
			<g>
				<g>
					<polygon style="fill:#E7EBF4;" points="690.816,887.779 633.359,926.022 654.389,930.32 671.249,1017.572 727.31,929.333 					
						"/>
				</g>
			</g>
			<g>
				<g>
					<polygon style="fill:#E7EBF4;" points="575.901,887.779 633.359,926.022 612.328,930.32 595.468,1017.572 539.407,929.333 
											"/>
				</g>
			</g>
		</g>
		<path style="fill:#29253B;" d="M429.754,966.762c-11.894,9.276-32.39,28.379-33.611,38.618
			c-1.22,10.238-27.402,226.719-34.196,286.144c-4.22,57.274,104.188,57.924,110.863,42.105
			c6.675-15.819,44.03-243.081,44.03-243.081L471.4,957.356C471.4,957.356,442.303,956.975,429.754,966.762z"/>
		<path style="fill:#29253B;" d="M828.01,963.407l-109.725-44.35l-33.688,260.127l-4.263,323.358
			c42.094,28.7,119.714,18.816,128.227,8.023c8.513-10.792-5.384-83.216-7.186-97.133c-19.059-147.177,8.986-304.286,8.986-304.286
			S834.492,999.071,828.01,963.407z"/>
		<path style="fill:#29253B;" d="M586.383,1176.976l-37.95-257.92l-106.729,42.065c-6.482,35.665,14.652,148.023,14.652,148.023
			s37.134,154.54,13.327,299.534c-1.035,12.653-15.804,91.701-9.672,100.498c6.132,8.797,97.809,29.036,135.123,4.332
			L586.383,1176.976z"/>
		<g>
			<g>
				<path style="fill:#FFA58F;" d="M883.594,1325.538c1.08-7.202-23.019-76.687-51.618-86.584
					c-28.6-9.897-300.658-38.212-300.658-38.212s-14.078,23.607-9.249,41.923c0,0,200.93,67.925,227.493,76.097
					C776.125,1326.934,882.514,1332.74,883.594,1325.538z"/>
			</g>
			<path style="fill:#FFA58F;" d="M542.977,1204.366c0,0-54.804-22.052-58.327-23.866v79.694l50.45-17.027L542.977,1204.366z"/>
			<path style="fill:#29253B;" d="M574.334,1190.021l-17.404,80.621c0,0,181.642,56.211,256.219,71.833
				c74.577,15.623,106.055-12.416,99.72-37.893c-6.335-25.476-27.892-63.219-74.098-74.522
				C792.565,1218.757,574.334,1190.021,574.334,1190.021z"/>
		</g>
		<g>
			<g>
				<path style="fill:#FFA58F;" d="M400.695,1328.46c0.276-7.277,23.628-89.489,53.567-93.905
					c29.94-4.416,335.31,40.655,335.31,40.655s-13.619,41.974-24.772,46.5c0,0-153.065,5.803-207.518,12.488
					C529.697,1337.583,400.419,1335.737,400.695,1328.46z"/>
			</g>
			<g>
				<g>
					<g>
						<path style="fill:#FFA58F;" d="M741.556,1316.661c16.553,9.014,35.477,11.303,53.349,16.35
							c7.288,2.058,15.989,3.742,21.126-1.32c2.885-2.843,3.834-7.155,4.666-11.239c2.676-13.141-8.724-31.973-6.044-49.15
							c1.881-12.056,2.543-37.676-3.642-36.96c-16.286,1.886-42.884,28.155-59.996,36.766c-2.457,1.236-4.512,3.15-5.963,5.557
							C739.399,1286.036,727.516,1309.015,741.556,1316.661z"/>
						<path style="fill:#FFA58F;" d="M810.608,1281.974c17.301,0.414,29.03-0.372,42.715-3.592
							c8.578-2.019,17.979-9.453,43.77-24.882c9.588-5.736-3.445-12.825-13.636-8.165c-15.237,6.967-12.335,6.479-31.152,12.579
							c-15.278,4.953-29.445-1.39-44.532,0.87C797.62,1260.304,800.287,1281.728,810.608,1281.974z"/>
						<path style="fill:#FFA58F;" d="M811.832,1301.44c24.33-1.688,32.722,0.901,48.229-3.117
							c11.778-3.052,17.548-7.927,36.456-15.115c12.97-4.93,5.001-19.211-7.947-14.289c-19.358,7.359-26.158,10.153-26.158,10.153
							c-19.824,5.531-40.437,0.721-60.549,3.792C788.329,1284.93,798.125,1302.391,811.832,1301.44z"/>
						<path style="fill:#FFA58F;" d="M810.44,1316.929c20.652,3.934,40.325,5.606,50.134,3.978
							c4.547-0.755,23.634-8.466,28.933-10.321c8.182-2.864,14.502-8.735,14.502-8.735c3.553-4.081-1.063-10.86-6.687-9.548
							c-6.56,1.531-27.664,9.105-41.951,11.528c-20.268,3.438-32.093-7.466-52.337-6.451
							C789.41,1298.063,796.911,1314.352,810.44,1316.929z"/>
						<path style="fill:#FFA58F;" d="M803.375,1334.995c18.243,2.916,24.713,1.73,32.711,1.956
							c3.707,0.105,17.182-2.281,25.554-2.551c4.504-0.145,17.042-2.483,17.042-2.483c3.29-3.087,0.607-8.839-4.021-8.625
							c-5.399,0.25-15.477,1.03-27.132,0.748c-16.533-0.4-31.905-8.115-48.146-10.711
							C788.453,1311.583,792.422,1333.244,803.375,1334.995z"/>
						<path style="fill:#FFA58F;" d="M805.309,1276.937c7.486-14.853,11.883-25.025,18.885-27.586
							c7.587-2.775,17.762-6.61,22.184-9.373c4.422-2.763,9.024-9.266,9.499-14.651c0.956-10.827-18.921-3.581-33.799-0.796
							c-11.837,2.216-18.072,6.493-23.255,11.458c-6.436,6.166-28.437,28.169-28.437,28.169L805.309,1276.937z"/>
					</g>
				</g>
			</g>
		</g>
		<path style="fill:#29253B;" d="M727.31,1335.834l17.485-83.31c0,0-270.702-29.625-293.81-32.473
			c-23.108-2.848-61.372,27.385-66.278,57.891c-4.906,30.507-0.981,55.242,30.415,62.007
			C446.52,1346.714,727.31,1335.834,727.31,1335.834z"/>
		<g>
			<g>
				<g>
					<path style="fill:#FFA58F;" d="M686.867,816.436c4.74,1.327,9.936,0.327,14.329-1.841c4.393-2.168,8.1-5.419,11.59-8.781
						c9.213-8.873,17.78-20.055,17.126-32.588c-0.219-4.193-1.637-8.538-4.916-11.305c-3.904-3.294-9.851-3.694-14.673-1.845
						c-4.822,1.848-8.617,5.627-11.419,9.834L686.867,816.436z"/>
					<path style="fill:#FFA58F;" d="M571.657,816.436c-4.74,1.327-9.936,0.327-14.329-1.841c-4.393-2.168-8.1-5.419-11.59-8.781
						c-9.213-8.873-17.78-20.055-17.126-32.588c0.219-4.193,1.637-8.538,4.916-11.305c3.904-3.294,9.851-3.694,14.673-1.845
						c4.822,1.848,8.617,5.627,11.419,9.834L571.657,816.436z"/>
				</g>
				<path style="fill:#FFA58F;" d="M705.704,822.503c3.647-39.21,13.871-62.07,20.191-84.726
					c4.513-16.973,9.084-45.97-10.651-71.534c-19.501-26.56-68.444-41.646-113.254-28.949
					c-45.128,12.716-70.163,39.102-64.699,69.137c2.76,17.984,5.35,42.862,8.355,61.415c2.493,15.424-2.198,30.893,3.505,45.919
					c10.622,25.854,51.669,71.205,83.999,71.205C659.569,884.969,703.185,839.612,705.704,822.503z"/>
			</g>
			<path style="fill:#F2F2F2;" d="M637.628,791.414c-0.266,0.79-0.593,1.474-0.963,2.173c-0.383,0.679-0.774,1.429-1.471,1.793
				c-0.662,0.354-1.661,0.104-2.436-1.022c-0.387-0.552-0.662-1.3-0.771-2.157c-0.093-0.851-0.007-1.807,0.313-2.732
				c0.33-0.922,0.86-1.715,1.463-2.312c0.619-0.591,1.298-0.99,1.941-1.167c1.301-0.368,2.228,0.085,2.518,0.787
				c0.311,0.732,0.146,1.565,0.018,2.336C638.09,789.893,637.915,790.632,637.628,791.414z"/>
			<path style="fill:#D16343;" d="M629.417,794.078c-0.125-0.538-0.232-1.02-0.316-1.449c-0.076-0.431-0.148-0.806-0.201-1.186
				c-0.049-0.391-0.077-0.831-0.06-1.334c0.015-0.501,0.075-1.055,0.146-1.621c0.147-1.135,0.322-2.302,0.262-3.289
				c-0.052-0.989-0.33-1.802-0.892-2.298c-0.562-0.493-1.108-0.483-1.705-0.073c-0.593,0.414-1.26,1.235-1.94,2.437
				c-0.664,1.195-1.373,2.846-1.554,4.83c-0.093,0.983-0.01,2.035,0.21,3.011c0.215,0.987,0.578,1.915,0.997,2.799
				c0.421,0.885,0.911,1.67,1.42,2.39c0.513,0.723,1.058,1.366,1.579,1.927c1.053,1.131,2.049,2.004,2.878,2.656
				c1.675,1.291,2.678,1.761,3.23,0.867c0.517-0.838,0.467-1.869-0.437-3.363c-0.441-0.748-1.095-1.612-1.814-2.652
				c-0.355-0.52-0.723-1.086-1.047-1.698C629.864,795.435,629.589,794.769,629.417,794.078z"/>
			<g>
				<path style="fill:#1A1A1A;" d="M658.738,746.914c4.719-1.231,9.627-1.468,14.435-0.76c4.809,0.703,16.258,12.484,11.954,11.31
					c-4.285-1.203-8.54-2.115-12.826-2.758c-4.287-0.638-8.6-0.993-13-1.076C654.888,753.512,654.034,748.18,658.738,746.914z"/>
				<path style="fill:#1A1A1A;" d="M600.406,746.478c-4.739-1.117-9.651-1.236-14.446-0.412
					c-4.795,0.819-16.035,12.873-11.752,11.596c4.263-1.306,8.501-2.321,12.775-3.067c4.275-0.741,8.581-1.2,12.978-1.388
					C604.372,752.982,605.131,747.63,600.406,746.478z"/>
				<g>
					<g>
						<path style="fill:#1A1A1A;" d="M598.423,781.023l-0.057-10.421c-0.028-5.015-4.153-9.096-9.168-9.068l0,0
							c-5.015,0.028-9.096,4.153-9.068,9.168l0.057,10.421C580.214,786.138,598.451,786.038,598.423,781.023z"/>
					</g>
					<g>
						<path style="fill:#1A1A1A;" d="M661.097,781.023l0.057-10.421c0.028-5.015,4.153-9.096,9.168-9.068l0,0
							c5.015,0.028,9.096,4.153,9.068,9.168l-0.057,10.421C679.306,786.138,661.069,786.038,661.097,781.023z"/>
					</g>
				</g>
			</g>
			<path style="fill:#C2502F;" d="M613.137,814.403c7.312,10.657,21.654,14.862,33.581,9.953c1.064-0.438,1.327-1.983,0.814-2.898
				c-0.618-1.102-1.831-1.253-2.898-0.814c-9.636,3.966-21.904,0.246-27.784-8.325C615.314,810.08,611.583,812.138,613.137,814.403
				L613.137,814.403z"/>
		</g>
		<g>
			<path style="fill:#693529;" d="M731.687,720.094c2.086-11.165,2.995-22.464,1.149-33.616
				c-2.875-17.371-13.802-34.463-30.726-40.106c9.249-6.106,10.099-20.092,4.369-29.496c-5.73-9.404-16.14-15.009-26.506-19.013
				c-34.963-13.503-76.511-12.907-108.457,6.54c-31.821,19.37-49.664,65.173-42.316,94.566
				c7.347,29.393,10.559,44.713,30.861,43.566c17.975-1.015,33.882-11.587,47.569-23.111c13.687-11.523,34.208-32.279,50.404-40.028
				c12.777-6.114,28.587-8.175,41.411-3.11c14.929,32.368,11.123,69.472,12.684,107.742c4.576-13.925,11.387-30.925,15.244-45.425
				C728.994,732.508,730.524,726.322,731.687,720.094z"/>
			<path style="fill:#693529;" d="M546.409,782.526l8.843-96.947c0,0-13.933-12.382-20.81-6.641
				C527.565,684.679,546.409,782.526,546.409,782.526z"/>
		</g>
	</g>
</g>
</svg>
